<svg width="223" height="50" viewBox="0 0 223 50" fill="none" xmlns="http://www.w3.org/2000/svg">
<path d="M195.772 11.1724C195.831 11.184 195.889 11.1955 195.95 11.2074C197.747 11.5778 199.287 12.5465 200.317 14.0774C200.728 14.7908 200.936 15.6222 201.179 16.4046C201.221 16.3559 201.264 16.3071 201.307 16.2568C204.202 12.9836 207.856 11.1672 212.245 10.8624C214.708 10.7119 217.322 10.8879 219.578 11.9573C219.678 12.0039 219.777 12.0506 219.879 12.0986C221.157 12.7414 221.991 13.6354 222.445 14.993C222.699 15.7894 222.739 16.5222 222.745 17.353C222.748 17.4579 222.75 17.5627 222.753 17.6708C222.765 19.4982 222.285 21.2923 221.837 23.0515C221.785 23.2584 221.733 23.4653 221.681 23.6723C221.544 24.22 221.405 24.7675 221.267 25.315C221.137 25.8285 221.007 26.3423 220.878 26.8561C220.558 28.1307 220.236 29.4048 219.913 30.6789C219.805 31.1048 219.698 31.5307 219.59 31.9567C219.254 33.2871 218.917 34.6173 218.578 35.9471C218.36 36.8036 218.144 37.6607 217.93 38.5182C217.834 38.9022 217.737 39.2862 217.64 39.6701C217.55 40.0289 217.461 40.3879 217.372 40.747C217.304 41.0175 217.236 41.2877 217.168 41.5581C217.133 41.7 217.133 41.7 217.097 41.8448C216.441 44.4292 214.918 46.367 212.644 47.7212C212.07 48.0508 211.484 48.3101 210.858 48.5227C210.799 48.5428 210.741 48.5629 210.68 48.5836C209.453 48.9759 208.294 49.0556 207.016 49.0443C206.852 49.0438 206.687 49.0434 206.523 49.0431C206.095 49.0421 205.667 49.0396 205.239 49.0367C204.801 49.034 204.362 49.0328 203.924 49.0315C203.067 49.0287 202.21 49.0242 201.353 49.0187C201.466 48.3491 201.61 47.6923 201.776 47.0339C201.801 46.9352 201.826 46.8365 201.851 46.7347C201.919 46.4634 201.987 46.1922 202.055 45.921C202.129 45.6275 202.202 45.3339 202.276 45.0403C202.403 44.5324 202.53 44.0245 202.657 43.5167C202.842 42.782 203.026 42.0471 203.21 41.3123C203.509 40.1191 203.807 38.9259 204.106 37.7328C204.124 37.6615 204.142 37.5902 204.161 37.5168C204.233 37.2279 204.306 36.9389 204.378 36.65C204.578 35.8537 204.777 35.0574 204.977 34.2611C204.995 34.1898 205.012 34.1184 205.031 34.0449C205.329 32.8556 205.627 31.6661 205.925 30.4767C206.108 29.7435 206.292 29.0104 206.476 28.2774C206.602 27.7755 206.727 27.2736 206.853 26.7717C206.925 26.4821 206.998 26.1926 207.071 25.9031C207.15 25.5893 207.228 25.2754 207.307 24.9615C207.33 24.8701 207.353 24.7786 207.376 24.6843C207.68 23.469 207.878 22.1823 207.234 21.0482C206.492 20.364 205.477 20.1954 204.498 20.2205C203.184 20.3241 201.81 20.6792 200.917 21.724C199.773 23.2323 199.41 25.0331 198.963 26.8359C198.874 27.1945 198.784 27.5528 198.694 27.9111C198.522 28.5964 198.35 29.2818 198.18 29.9673C197.946 30.9045 197.712 31.8416 197.478 32.7786C197.461 32.8466 197.444 32.9146 197.426 32.9847C197.302 33.4819 197.177 33.979 197.053 34.4762C196.907 35.0622 196.76 35.6482 196.613 36.2342C196.586 36.3443 196.586 36.3443 196.558 36.4565C196.303 37.4765 196.048 38.4965 195.794 39.5165C194.557 44.4743 194.557 44.4743 193.963 46.8134C193.914 47.0074 193.865 47.2013 193.816 47.3953C193.75 47.6562 193.683 47.917 193.617 48.1778C193.598 48.254 193.579 48.3302 193.559 48.4088C193.427 48.9215 193.427 48.9215 193.33 49.0187C193.151 49.0272 192.972 49.0293 192.793 49.0292C192.708 49.0293 192.708 49.0293 192.622 49.0294C192.43 49.0296 192.239 49.0291 192.048 49.0286C191.911 49.0286 191.774 49.0286 191.638 49.0286C191.266 49.0287 190.894 49.0282 190.522 49.0275C190.133 49.027 189.745 49.027 189.356 49.0269C188.621 49.0266 187.885 49.0259 187.149 49.025C186.311 49.024 185.473 49.0235 184.636 49.0231C182.912 49.0222 181.188 49.0207 179.465 49.0187C179.576 48.3677 179.713 47.7284 179.874 47.0882C179.897 46.9958 179.92 46.9034 179.944 46.8083C180.02 46.5036 180.097 46.199 180.173 45.8944C180.228 45.6781 180.282 45.4618 180.336 45.2455C180.465 44.7274 180.595 44.2094 180.725 43.6914C180.831 43.2722 180.936 42.8529 181.041 42.4336C181.764 39.5469 182.49 36.661 183.223 33.777C183.744 31.7298 184.258 29.681 184.771 27.6318C184.833 27.3833 184.895 27.1349 184.957 26.8865C185.054 26.4986 185.151 26.1107 185.248 25.7228C185.284 25.5795 185.32 25.4362 185.356 25.2929C185.405 25.096 185.454 24.8991 185.503 24.7022C185.545 24.5365 185.545 24.5365 185.587 24.3674C185.713 23.8424 185.762 23.3687 185.765 22.8304C185.767 22.7592 185.769 22.688 185.771 22.6146C185.775 22.0193 185.648 21.5734 185.346 21.0537C184.602 20.3486 183.596 20.2042 182.61 20.2256C181.464 20.2941 180.426 20.6079 179.552 21.3752C179.5 21.4189 179.449 21.4625 179.395 21.5074C177.727 23.0282 177.434 25.9263 176.918 28.0148C176.815 28.4305 176.712 28.846 176.608 29.2616C176.411 30.053 176.214 30.8445 176.018 31.6362C175.779 32.5994 175.539 33.5625 175.3 34.5256C175.278 34.611 175.257 34.6965 175.235 34.7845C175.15 35.1286 175.064 35.4726 174.978 35.8167C174.851 36.3289 174.723 36.8412 174.596 37.3534C173.98 39.8305 173.358 42.3057 172.728 44.7793C172.713 44.8385 172.698 44.8976 172.683 44.9585C172.611 45.2419 172.538 45.5254 172.466 45.8088C172.333 46.3316 172.201 46.8547 172.071 47.3783C172.047 47.4762 172.023 47.5741 171.997 47.675C171.952 47.8578 171.907 48.0406 171.862 48.2234C171.843 48.3032 171.823 48.3829 171.802 48.465C171.777 48.5692 171.777 48.5692 171.751 48.6755C171.704 48.8443 171.704 48.8443 171.617 49.0187C167.012 49.0187 162.408 49.0187 157.664 49.0187C157.877 48.0595 158.093 47.1048 158.332 46.1523C158.362 46.0316 158.392 45.9108 158.422 45.79C158.503 45.4657 158.584 45.1415 158.666 44.8172C158.753 44.4694 158.84 44.1215 158.927 43.7736C159.074 43.1849 159.221 42.5963 159.369 42.0076C159.516 41.4178 159.664 40.828 159.812 40.2381C160.586 37.1421 161.363 34.047 162.149 30.9541C162.696 28.7998 163.237 26.6439 163.775 24.4872C163.835 24.2465 163.895 24.0058 163.955 23.7651C164.32 22.3046 164.684 20.8441 165.047 19.3835C165.23 18.6495 165.413 17.9155 165.596 17.1816C165.71 16.7253 165.824 16.269 165.937 15.8126C166.007 15.5302 166.078 15.248 166.149 14.9657C166.181 14.837 166.213 14.7083 166.245 14.5795C166.259 14.5196 166.274 14.4596 166.29 14.3979C166.309 14.3206 166.309 14.3206 166.328 14.2418C166.531 13.4421 166.761 12.6643 166.995 11.8701C171.628 11.8701 176.261 11.8701 181.035 11.8701C180.927 12.4641 180.816 13.0426 180.668 13.6257C180.633 13.7692 180.597 13.9128 180.562 14.0563C180.506 14.2787 180.45 14.5011 180.394 14.7234C180.34 14.9406 180.286 15.1579 180.232 15.3752C180.215 15.4424 180.198 15.5095 180.181 15.5786C180.142 15.7368 180.108 15.8962 180.075 16.0558C180.104 16.0846 180.133 16.1134 180.163 16.143C180.22 16.0788 180.278 16.0147 180.338 15.9485C180.415 15.8634 180.492 15.7783 180.571 15.6907C180.647 15.6067 180.723 15.5227 180.801 15.4362C181.019 15.2006 181.243 14.974 181.471 14.7478C181.551 14.6599 181.551 14.6599 181.633 14.5703C183.994 12.038 187.745 10.9587 191.105 10.8321C192.668 10.7931 194.237 10.8638 195.772 11.1724Z" fill="white"/>
<path d="M38.78 0.00195806C38.9699 0.002121 39.1599 0.00224499 39.3499 0.00233197C39.8464 0.00266256 40.3428 0.00351721 40.8392 0.00448624C41.4368 0.00554152 42.0344 0.00593666 42.632 0.00644424C43.2444 0.00701391 43.8569 0.00793963 44.4694 0.00898572C44.5539 0.00912873 44.6384 0.00927173 44.7254 0.00941907C44.9322 0.00976927 45.139 0.010121 45.3458 0.010474C45.4732 2.63667 45.5818 5.26327 45.6805 7.89069C45.7006 8.42452 45.7209 8.95835 45.7411 9.49217C45.7805 10.5316 45.8197 11.571 45.8589 12.6105C45.8907 13.4554 45.9226 14.3003 45.9545 15.1452C45.9592 15.2675 45.9638 15.3898 45.9684 15.5121C45.9754 15.6964 45.9823 15.8808 45.9893 16.0651C46.0538 17.7725 46.1183 19.4798 46.1826 21.1872C46.1862 21.2832 46.1862 21.2832 46.1899 21.3811C46.2021 21.7054 46.2143 22.0296 46.2265 22.3539C46.2302 22.4504 46.2302 22.4504 46.2339 22.5489C46.2388 22.6791 46.2437 22.8093 46.2486 22.9395C46.3251 24.9709 46.4018 27.0023 46.4787 29.0338C46.5655 31.3251 46.6521 33.6165 46.7384 35.9078C46.7476 36.1522 46.7568 36.3965 46.766 36.6408C46.7694 36.7311 46.7694 36.7311 46.7729 36.8231C46.807 37.7282 46.8412 38.6333 46.8755 39.5384C46.9145 40.5664 46.9533 41.5945 46.9918 42.6226C47.0115 43.1465 47.0312 43.6703 47.0512 44.1942C47.0695 44.6743 47.0875 45.1544 47.1054 45.6344C47.1119 45.8074 47.1184 45.9804 47.1251 46.1533C47.1342 46.3899 47.143 46.6265 47.1516 46.8631C47.1543 46.9289 47.1569 46.9947 47.1595 47.0624C47.1839 47.7446 47.177 48.4217 47.177 49.106C41.882 49.106 36.5871 49.106 31.1316 49.106C31.2641 46.2567 31.4123 43.4082 31.5676 40.5601C27.6827 40.5888 23.7978 40.6176 19.7952 40.6473C18.4342 43.7047 18.4342 43.7047 17.0892 46.769C16.995 46.9852 16.9006 47.2013 16.8061 47.4174C16.7795 47.4788 16.7528 47.5402 16.7254 47.6035C16.577 47.9424 16.4192 48.2749 16.2531 48.6056C16.1946 48.722 16.1946 48.722 16.135 48.8409C16.0906 48.9289 16.0906 48.9289 16.0454 49.0188C14.3525 49.0303 12.6596 49.0416 10.9667 49.0529C10.1803 49.0581 9.39397 49.0634 8.60761 49.0687C7.92078 49.0734 7.23395 49.078 6.54713 49.0825C6.18476 49.0849 5.8224 49.0873 5.46003 49.0898C3.63999 49.1024 1.82009 49.1088 0 49.106C0.120355 48.8005 0.251223 48.5094 0.402634 48.2179C0.447795 48.1309 0.492956 48.0439 0.539486 47.9543C0.61237 47.8148 0.61237 47.8148 0.686727 47.6726C0.737564 47.5751 0.788402 47.4776 0.84078 47.3771C1.19835 46.6937 1.56415 46.0152 1.93563 45.3392C2.32915 44.6218 2.71277 43.8993 3.09572 43.1762C3.55242 42.3139 4.01294 41.4542 4.48246 40.5989C4.86962 39.8917 5.24723 39.1796 5.62462 38.4672C6.08135 37.605 6.54184 36.7452 7.01136 35.8899C7.39852 35.1827 7.77613 34.4706 8.15352 33.7582C8.61025 32.896 9.07074 32.0362 9.54026 31.1809C9.92742 30.4737 10.305 29.7616 10.6824 29.0492C11.1391 28.187 11.5996 27.3273 12.0692 26.4719C12.4563 25.7648 12.8339 25.0526 13.2113 24.3402C13.6284 23.5529 14.047 22.7668 14.4758 21.9857C14.9005 21.2118 15.3159 20.4331 15.7293 19.653C16.2335 18.7018 16.7404 17.7522 17.2516 16.8047C17.5933 16.1712 17.9339 15.5371 18.2736 14.9024C18.8761 13.7767 19.4798 12.6515 20.0867 11.528C20.2284 11.2649 20.369 11.0013 20.5095 10.7375C21.4902 8.9042 22.6281 7.26821 24.0681 5.7659C24.1339 5.6966 24.1339 5.6966 24.2009 5.6259C24.89 4.90272 25.6131 4.25851 26.4226 3.67302C26.509 3.6105 26.509 3.6105 26.5972 3.54672C29.2535 1.65135 32.4008 0.386 35.6662 0.0976774C35.7354 0.0905701 35.8046 0.0834627 35.8758 0.07614C36.843 -0.012772 37.8096 -0.000502972 38.78 0.00195806ZM33.1373 11.0853C33.0957 11.1755 33.0541 11.2658 33.0112 11.3588C31.6222 14.3705 31.6222 14.3705 31.0008 15.7071C30.3535 17.0995 29.7107 18.494 29.0676 19.8883C28.7383 20.602 28.4089 21.3157 28.0795 22.0293C27.9486 22.313 27.8177 22.5966 27.6867 22.8802C27.6543 22.9504 27.6219 23.0206 27.5886 23.0929C27.3932 23.5162 27.1979 23.9396 27.0026 24.3629C26.8726 24.6448 26.7426 24.9267 26.6125 25.2086C26.516 25.4178 26.4195 25.6271 26.323 25.8364C25.9705 26.6007 25.6165 27.3642 25.2611 28.1271C25.146 28.3742 25.031 28.6213 24.916 28.8685C24.8418 29.0278 24.7674 29.1872 24.693 29.3464C24.5897 29.5673 24.4868 29.7884 24.3839 30.0095C24.3377 30.1079 24.3377 30.1079 24.2906 30.2083C24.1591 30.4917 24.057 30.7504 23.9809 31.0549C26.6572 31.0549 29.3335 31.0549 32.0908 31.0549C32.2318 30.773 32.2118 30.4613 32.2283 30.1509C32.2326 30.0745 32.237 29.9981 32.2414 29.9194C32.256 29.6619 32.27 29.4044 32.284 29.1468C32.2943 28.9628 32.3046 28.7787 32.315 28.5947C32.3431 28.0934 32.3707 27.5921 32.3982 27.0909C32.4271 26.5664 32.4563 26.042 32.4855 25.5175C32.5345 24.6358 32.5832 23.7541 32.6317 22.8724C32.6877 21.8542 32.7442 20.836 32.801 19.8178C32.8556 18.8381 32.9099 17.8585 32.964 16.8788C32.987 16.4622 33.0102 16.0456 33.0334 15.629C33.0607 15.1373 33.0878 14.6457 33.1147 14.154C33.1246 13.974 33.1346 13.794 33.1447 13.614C33.2178 12.3505 33.2178 12.3505 33.2245 11.0853C33.1957 11.0853 33.1669 11.0853 33.1373 11.0853Z" fill="white"/>
<path d="M124.527 11.87C129.131 11.87 133.735 11.87 138.479 11.87C138.283 12.9491 138.283 12.9491 138.19 13.3219C138.168 13.4074 138.147 13.4929 138.125 13.581C138.102 13.6715 138.08 13.7621 138.056 13.8554C138.031 13.9542 138.007 14.053 137.981 14.1548C137.913 14.4262 137.845 14.6976 137.777 14.969C137.703 15.2627 137.63 15.5565 137.557 15.8503C137.429 16.3584 137.302 16.8666 137.175 17.3746C136.99 18.1097 136.806 18.8449 136.622 19.58C136.324 20.7736 136.025 21.9672 135.726 23.1607C135.436 24.3185 135.145 25.4763 134.856 26.6342C134.838 26.7055 134.82 26.7769 134.801 26.8505C134.606 27.6299 134.411 28.4092 134.216 29.1886C134.199 29.2571 134.182 29.3256 134.164 29.3961C134.095 29.6699 134.027 29.9436 133.958 30.2173C133.758 31.0185 133.557 31.8196 133.356 32.6207C133.231 33.1228 133.105 33.6248 132.979 34.1269C132.907 34.4166 132.834 34.7063 132.761 34.996C132.683 35.3099 132.604 35.6238 132.525 35.9377C132.502 36.0294 132.479 36.1211 132.456 36.2156C132.424 36.3418 132.424 36.3418 132.392 36.4705C132.374 36.5429 132.356 36.6154 132.337 36.69C132.22 37.1844 132.182 37.6388 132.179 38.1455C132.176 38.2523 132.176 38.2523 132.173 38.3613C132.17 38.9566 132.296 39.4025 132.598 39.9222C133.308 40.5951 134.294 40.7786 135.243 40.7558C136.659 40.6439 137.846 40.2439 138.828 39.1647C139.634 38.1268 140.019 36.8861 140.326 35.6287C140.359 35.4972 140.392 35.3658 140.425 35.2344C140.496 34.9526 140.566 34.6706 140.636 34.3886C140.748 33.9337 140.862 33.4792 140.975 33.0247C141.137 32.3781 141.298 31.7313 141.459 31.0845C141.7 30.1173 141.943 29.1508 142.186 28.1844C142.227 28.0253 142.267 27.8661 142.307 27.707C142.367 27.4679 142.427 27.2288 142.488 26.9897C142.71 26.1075 142.932 25.2251 143.154 24.3426C143.194 24.1819 143.234 24.0211 143.275 23.8603C143.336 23.6187 143.396 23.377 143.457 23.1354C143.622 22.4786 143.787 21.8218 143.952 21.165C144.156 20.3566 144.359 19.5483 144.562 18.7399C144.619 18.5155 144.675 18.2911 144.731 18.0667C144.82 17.7129 144.909 17.3592 144.998 17.0054C145.032 16.8693 145.067 16.7331 145.101 16.5969C145.295 15.8266 145.487 15.0561 145.679 14.2852C145.733 14.0663 145.788 13.8475 145.842 13.6287C145.894 13.4213 145.945 13.2139 145.996 13.0066C146.027 12.8814 146.058 12.7563 146.089 12.6312C146.13 12.4671 146.13 12.4671 146.172 12.2996C146.24 12.0444 146.24 12.0444 146.327 11.87C150.903 11.87 155.479 11.87 160.193 11.87C160.136 12.386 160.077 12.8237 159.954 13.3175C159.938 13.3796 159.923 13.4417 159.907 13.5056C159.856 13.7123 159.803 13.9188 159.751 14.1252C159.714 14.2754 159.677 14.4256 159.639 14.5758C159.537 14.9874 159.433 15.3989 159.33 15.8103C159.219 16.2544 159.108 16.6987 158.997 17.1429C158.78 18.0126 158.562 18.8822 158.344 19.7516C158.09 20.7637 157.837 21.7759 157.584 22.788C157.133 24.5933 156.681 26.3984 156.229 28.2035C155.79 29.9564 155.351 31.7093 154.913 33.4624C154.886 33.5704 154.859 33.6785 154.831 33.7898C154.804 33.8976 154.777 34.0055 154.749 34.1166C154.695 34.3338 154.641 34.551 154.587 34.7681C154.56 34.8752 154.533 34.9823 154.505 35.0926C154.088 36.7619 153.67 38.4311 153.253 40.1002C153.101 40.7059 152.95 41.3115 152.798 41.9172C152.558 42.8774 152.318 43.8375 152.077 44.7976C151.967 45.2365 151.857 45.6754 151.747 46.1143C151.647 46.5155 151.547 46.9167 151.446 47.3178C151.409 47.4635 151.373 47.6092 151.337 47.7549C151.288 47.9519 151.238 48.1487 151.189 48.3456C151.161 48.4553 151.134 48.565 151.105 48.6781C151.036 48.9314 151.036 48.9314 150.949 49.1058C146.374 49.1058 141.798 49.1058 137.084 49.1058C137.182 48.3211 137.182 48.3211 137.261 48.0036C137.279 47.9326 137.296 47.8616 137.314 47.7885C137.333 47.7145 137.351 47.6404 137.37 47.5641C137.399 47.4472 137.399 47.4472 137.429 47.3279C137.49 47.0811 137.551 46.8345 137.613 46.5878C137.674 46.3393 137.736 46.0908 137.797 45.8422C137.836 45.688 137.874 45.5339 137.912 45.3799C138.008 45.0235 138.008 45.0235 138.043 44.6585C138.006 44.7083 137.969 44.7581 137.93 44.8094C135.734 47.658 132.524 49.3286 128.989 49.8464C128.868 49.8618 128.746 49.8765 128.625 49.8907C128.557 49.8988 128.488 49.9069 128.418 49.9152C127.694 49.991 126.97 49.9991 126.243 49.9997C126.146 49.9998 126.146 49.9998 126.046 49.9999C123.421 49.9961 120.954 49.5561 118.858 47.885C118.784 47.8289 118.71 47.7728 118.633 47.715C117.725 46.9448 117.23 45.6427 117.114 44.4841C117.09 44.1243 117.081 43.7654 117.076 43.4049C117.074 43.3191 117.072 43.2334 117.07 43.145C117.076 41.2304 117.635 39.3358 118.101 37.4923C118.188 37.1473 118.274 36.8019 118.36 36.4567C118.509 35.861 118.658 35.2655 118.808 34.6701C119.025 33.8093 119.241 32.9483 119.456 32.0872C119.806 30.6895 120.156 29.292 120.507 27.8946C120.848 26.5387 121.188 25.1826 121.528 23.8264C121.549 23.7417 121.57 23.657 121.592 23.5697C121.758 22.9072 121.924 22.2446 122.09 21.5821C122.901 18.3444 123.714 15.1073 124.527 11.87Z" fill="white"/>
<path d="M82.6694 0.533569C87.2738 0.533569 91.8781 0.533569 96.622 0.533569C95.2117 6.17459 95.2117 6.17459 94.5493 8.70324C94.4406 9.11808 94.3324 9.53302 94.2242 9.94795C94.0645 10.5596 93.9043 11.1712 93.7443 11.7828C96.55 11.826 96.55 11.826 99.4125 11.87C99.305 12.4611 99.1956 13.0379 99.0502 13.6186C99.0323 13.691 99.0144 13.7634 98.996 13.8381C98.9378 14.0736 98.8791 14.309 98.8205 14.5444C98.7796 14.7092 98.7388 14.874 98.698 15.0388C98.5914 15.4697 98.4843 15.9004 98.3772 16.3312C98.2484 16.8496 98.12 17.3681 97.9915 17.8866C97.797 18.6717 97.6018 19.4566 97.4068 20.2415C95.4788 20.2415 93.5507 20.2415 91.5642 20.2415C91.4491 20.7595 91.334 21.2775 91.2154 21.8112C91.1522 22.0767 91.0885 22.3416 91.0217 22.6062C91.0051 22.6727 90.9885 22.7393 90.9714 22.8079C90.9174 23.0237 90.8632 23.2396 90.8089 23.4554C90.7695 23.613 90.7301 23.7706 90.6906 23.9282C90.6066 24.264 90.5225 24.5997 90.4383 24.9354C90.305 25.4663 90.1721 25.9974 90.0392 26.5285C89.8292 27.3677 89.6189 28.2068 89.4086 29.0459C89.0312 30.5515 88.6541 32.0571 88.2772 33.5627C88.1451 34.0906 88.0128 34.6185 87.8804 35.1463C87.7983 35.4738 87.7163 35.8013 87.6343 36.1288C87.5963 36.2806 87.5582 36.4324 87.5201 36.5842C87.4681 36.7913 87.4163 36.9985 87.3644 37.2056C87.3418 37.2957 87.3418 37.2957 87.3186 37.3877C87.1086 38.229 86.9218 39.0751 87.3784 39.8623C87.73 40.3347 88.2149 40.5163 88.7737 40.6471C89.5329 40.7397 90.299 40.7581 91.0628 40.7834C91.1703 40.7872 91.2779 40.7909 91.3888 40.7948C91.6507 40.8039 91.9127 40.8128 92.1746 40.8215C92.1159 41.2934 92.0181 41.745 91.9014 42.2057C91.8827 42.2806 91.864 42.3556 91.8447 42.4328C91.7831 42.6787 91.7212 42.9245 91.6592 43.1702C91.6163 43.3414 91.5734 43.5126 91.5306 43.6838C91.418 44.133 91.3051 44.5821 91.1921 45.0312C91.0767 45.49 90.9617 45.9489 90.8466 46.4078C90.6211 47.3073 90.3951 48.2066 90.1689 49.1059C88.9218 49.221 87.6759 49.3206 86.4246 49.3784C86.308 49.3838 86.308 49.3838 86.189 49.3894C76.034 49.8511 76.034 49.8511 73.3986 47.5961C72.4037 46.6454 72.1093 45.6069 72.0774 44.2601C72.0764 44.1613 72.0753 44.0626 72.0742 43.9609C72.0718 43.8254 72.0718 43.8254 72.0693 43.6872C72.0864 41.4752 72.8151 39.2789 73.3602 37.1534C73.4817 36.679 73.6022 36.2043 73.7229 35.7297C73.875 35.1312 74.0272 34.5328 74.1798 33.9345C74.5365 32.5359 74.891 31.1368 75.2439 29.7372C75.2683 29.6404 75.2927 29.5435 75.3178 29.4438C75.4409 28.9555 75.564 28.4673 75.687 27.979C75.9344 26.9972 76.1822 26.0154 76.43 25.0336C76.4663 24.8895 76.4663 24.8895 76.5034 24.7425C77.0414 22.6108 77.5802 20.4793 78.1191 18.3478C78.625 16.3472 79.1302 14.3465 79.6347 12.3455C79.689 12.13 79.7434 11.9145 79.7977 11.699C80.1161 10.4361 80.1161 10.4361 80.4344 9.17317C80.7719 7.83375 81.1098 6.49443 81.4486 5.15535C81.4746 5.05256 81.5006 4.94976 81.5274 4.84386C81.6868 4.21383 81.8465 3.58387 82.0066 2.95399C82.0571 2.75503 82.1076 2.55605 82.158 2.35705C82.2274 2.08311 82.297 1.80924 82.3667 1.53539C82.3874 1.45369 82.408 1.372 82.4293 1.28783C82.4578 1.17639 82.4578 1.17639 82.4868 1.06269C82.5114 0.965668 82.5114 0.965668 82.5366 0.866688C82.5822 0.707976 82.5822 0.707976 82.6694 0.533569Z" fill="white"/>
<path d="M62.2632 0.010376C66.8675 0.010376 71.4718 0.010376 76.2157 0.010376C76.0195 1.08953 76.0195 1.08953 75.9183 1.49354C75.8954 1.58569 75.8725 1.67783 75.8489 1.77277C75.8243 1.8705 75.7996 1.96824 75.7742 2.06894C75.7478 2.17495 75.7213 2.28096 75.6941 2.39018C75.6217 2.67965 75.5492 2.96905 75.4764 3.25842C75.3992 3.56628 75.3222 3.87422 75.2452 4.18215C75.0971 4.77424 74.9487 5.36624 74.8001 5.95821C74.6797 6.43815 74.5594 6.91813 74.4392 7.39813C74.2338 8.21842 74.0283 9.03868 73.8227 9.85891C73.8067 9.92274 73.7907 9.98657 73.7742 10.0523C73.2244 12.2456 72.6701 14.4377 72.1123 16.6289C71.6666 18.3801 71.2278 20.133 70.7897 21.8862C70.7735 21.951 70.7573 22.0159 70.7406 22.0827C70.47 23.1655 70.1996 24.2484 69.9292 25.3312C69.6768 26.3416 69.4245 27.352 69.172 28.3624C69.1558 28.4272 69.1396 28.4921 69.1229 28.5589C68.6846 30.3128 68.2448 32.0662 67.7989 33.8182C67.2778 35.866 66.7599 37.9146 66.2487 39.9649C66.1519 40.3533 66.0549 40.7418 65.9579 41.1303C65.673 42.271 65.3883 43.4117 65.1042 44.5526C64.9777 45.0602 64.8512 45.5676 64.7245 46.0751C64.6356 46.4314 64.5469 46.7876 64.4583 47.1439C64.3912 47.4138 64.3238 47.6835 64.2564 47.9533C64.2323 48.0506 64.2081 48.1479 64.1833 48.2481C64.1612 48.3362 64.1391 48.4244 64.1164 48.5152C64.0973 48.5919 64.0782 48.6685 64.0585 48.7475C64.0072 48.9315 64.0072 48.9315 63.92 49.1059C59.3445 49.1059 54.7689 49.1059 50.0547 49.1059C50.1528 48.2229 50.1528 48.2229 50.2381 47.8822C50.2574 47.8043 50.2766 47.7264 50.2965 47.6461C50.3175 47.563 50.3386 47.4799 50.3603 47.3943C50.3828 47.304 50.4053 47.2137 50.4284 47.1207C50.5035 46.8193 50.5794 46.5181 50.6552 46.2169C50.7094 46 50.7636 45.7831 50.8177 45.5662C50.9497 45.0376 51.0823 44.5092 51.215 43.9808C51.3711 43.3592 51.5266 42.7376 51.6821 42.1159C51.9614 40.9992 52.2412 39.8826 52.5212 38.766C52.7893 37.6972 53.0572 36.6283 53.3247 35.5593C53.3492 35.4616 53.3492 35.4616 53.3741 35.3619C53.4397 35.0997 53.5053 34.8375 53.571 34.5753C55.7532 25.855 55.7532 25.855 56.7585 21.9031C57.395 19.4012 58.0215 16.8968 58.6473 14.3921C58.686 14.237 58.686 14.237 58.7256 14.0788C59.0949 12.6006 59.464 11.1223 59.8331 9.64396C60.2102 8.13338 60.5873 6.6228 60.9647 5.11228C61.1153 4.50948 61.2658 3.90666 61.4162 3.30382C61.5087 2.93336 61.6012 2.56292 61.6938 2.19248C61.7367 2.02076 61.7795 1.84903 61.8223 1.67728C61.8805 1.44379 61.9389 1.21032 61.9973 0.976868C62.0143 0.908563 62.0313 0.840259 62.0488 0.769885C62.113 0.513398 62.1795 0.261335 62.2632 0.010376Z" fill="white"/>
<path d="M104.697 11.8594C104.85 11.8595 104.85 11.8595 105.006 11.8596C105.063 11.8596 105.12 11.8595 105.178 11.8594C105.369 11.8593 105.561 11.8597 105.752 11.8602C105.889 11.8602 106.025 11.8602 106.162 11.8602C106.534 11.8601 106.906 11.8607 107.278 11.8613C107.666 11.8618 108.055 11.8619 108.443 11.862C109.179 11.8622 109.915 11.863 110.651 11.8638C111.489 11.8648 112.326 11.8653 113.164 11.8657C114.888 11.8666 116.611 11.8682 118.335 11.8701C118.274 12.5718 118.09 13.2446 117.918 13.9255C117.884 14.0634 117.85 14.2012 117.815 14.339C117.722 14.7139 117.627 15.0886 117.533 15.4633C117.433 15.8623 117.333 16.2615 117.233 16.6606C117.064 17.3366 116.895 18.0126 116.725 18.6885C116.492 19.6178 116.259 20.5473 116.027 21.4767C115.239 24.6223 114.448 27.767 113.65 30.9097C113.118 33.0026 112.592 35.0968 112.068 37.1918C112.051 37.2632 112.033 37.3347 112.014 37.4083C111.763 38.4149 111.512 39.4216 111.261 40.4283C111.004 41.4556 110.748 42.4829 110.491 43.5102C110.406 43.8519 110.321 44.1937 110.235 44.5355C109.932 45.7547 109.627 46.9737 109.313 48.1903C109.292 48.2742 109.27 48.3582 109.248 48.4446C109.229 48.5199 109.209 48.5951 109.189 48.6727C109.172 48.7379 109.155 48.8032 109.138 48.8704C109.091 49.0188 109.091 49.0188 109.004 49.106C108.825 49.1144 108.646 49.1166 108.467 49.1164C108.382 49.1166 108.382 49.1166 108.295 49.1167C108.104 49.1168 107.913 49.1163 107.721 49.1159C107.585 49.1158 107.448 49.1159 107.311 49.1159C106.939 49.1159 106.567 49.1154 106.195 49.1148C105.807 49.1143 105.419 49.1142 105.03 49.1141C104.294 49.1138 103.558 49.1131 102.822 49.1122C101.985 49.1113 101.147 49.1108 100.309 49.1103C98.5858 49.1094 96.8623 49.1079 95.1387 49.106C95.3652 48.0655 95.6076 47.0303 95.8665 45.9974C95.9035 45.8494 95.9404 45.7013 95.9773 45.5533C96.0776 45.1513 96.1781 44.7494 96.2787 44.3474C96.3875 43.9122 96.4962 43.4769 96.6048 43.0416C96.8172 42.1912 97.0297 41.3408 97.2423 40.4905C97.4151 39.7998 97.5877 39.1091 97.7603 38.4184C97.7849 38.3199 97.8095 38.2214 97.8349 38.1199C97.8849 37.9198 97.9349 37.7196 97.9849 37.5195C98.4528 35.647 98.9209 33.7745 99.3892 31.902C99.818 30.1874 100.246 28.4727 100.675 26.758C101.115 24.9965 101.555 23.235 101.995 21.4736C102.242 20.485 102.49 19.4963 102.736 18.5076C102.946 17.6672 103.156 16.8268 103.367 15.9865C103.474 15.5576 103.581 15.1286 103.688 14.6995C103.786 14.3075 103.884 13.9155 103.982 13.5235C104.018 13.3811 104.054 13.2387 104.089 13.0962C104.137 12.9038 104.185 12.7116 104.234 12.5193C104.26 12.4121 104.287 12.3049 104.315 12.1945C104.406 11.8731 104.406 11.8731 104.697 11.8594Z" fill="white"/>
</svg>
