<svg width="194" height="60" viewBox="0 0 194 60" fill="none" xmlns="http://www.w3.org/2000/svg">
<path d="M79.0602 13.6625C82.201 13.5912 85.2908 14.2298 87.633 16.4499C88.1626 16.9675 88.5941 17.5303 88.998 18.1491C89.0665 18.2495 89.0665 18.2495 89.1363 18.352C90.6842 20.7854 91.141 24.0172 91.1334 26.8465C91.1335 26.9822 91.1335 26.9822 91.1336 27.1207C91.1337 27.3687 91.1335 27.6166 91.1331 27.8646C91.1328 28.1332 91.1329 28.4018 91.1329 28.6704C91.133 29.1347 91.1328 29.599 91.1323 30.0634C91.1317 30.7347 91.1315 31.406 91.1314 32.0773C91.1312 33.1667 91.1307 34.2561 91.13 35.3455C91.1293 36.4031 91.1288 37.4608 91.1285 38.5185C91.1284 38.5845 91.1284 38.6504 91.1284 38.7184C91.1282 39.2343 91.1281 39.7502 91.128 40.2661C91.1272 42.7909 91.1257 45.3158 91.1243 47.8406C87.7162 47.8406 84.3082 47.8406 80.7968 47.8406C80.7931 46.3591 80.7894 44.8775 80.7855 43.3511C80.7828 42.4122 80.7801 41.4733 80.7772 40.5344C80.7757 40.0411 80.7742 39.5477 80.7727 39.0543C80.7725 38.9925 80.7723 38.9306 80.7721 38.8669C80.7691 37.8709 80.7666 36.8749 80.7643 35.8788C80.762 34.8554 80.759 33.8319 80.7556 32.8084C80.7535 32.1778 80.7518 31.5471 80.7507 30.9164C80.7499 30.4829 80.7485 30.0495 80.7468 29.616C80.7457 29.3665 80.7451 29.1171 80.7449 28.8676C80.7517 26.9725 80.7517 26.9725 80.4029 25.1163C80.3867 25.06 80.3704 25.0037 80.3537 24.9456C80.0176 23.8407 79.4311 22.946 78.4101 22.3774C76.7664 21.5216 74.802 21.6653 73.0797 22.1832C71.4272 22.7732 70.2437 23.9293 69.4709 25.4864C68.7271 27.0592 68.7 28.6922 68.6985 30.399C68.6978 30.5907 68.6971 30.7824 68.6962 30.9741C68.6946 31.3845 68.6934 31.7949 68.6926 32.2052C68.6915 32.7985 68.6896 33.3918 68.6875 33.9851C68.684 34.948 68.6812 35.9109 68.6789 36.8739C68.6766 37.8085 68.6739 38.743 68.6709 39.6776C68.6707 39.736 68.6705 39.7943 68.6704 39.8544C68.6689 40.3107 68.6674 40.767 68.6659 41.2233C68.6586 43.4544 68.6528 45.6855 68.6468 47.9165C65.2388 47.9165 61.8307 47.9165 58.3193 47.9165C58.3193 36.8904 58.3193 25.8643 58.3193 14.5041C61.6522 14.5041 64.9851 14.5041 68.419 14.5041C68.4441 15.9575 68.4691 17.411 68.4949 18.9084C68.7706 18.5576 69.0463 18.2068 69.3303 17.8453C69.5363 17.6184 69.7391 17.3999 69.9567 17.1856C70.0117 17.1314 70.0666 17.0771 70.1232 17.0213C72.5226 14.6973 75.7874 13.7487 79.0602 13.6625Z" fill="white"/>
<path d="M128.105 14.7318C131.413 14.7318 134.721 14.7318 138.129 14.7318C139.085 16.9905 139.085 16.9905 139.542 18.1136C139.658 18.3982 139.774 18.6827 139.89 18.9672C139.95 19.1138 140.01 19.2604 140.07 19.407C140.362 20.1224 140.655 20.8372 140.948 21.5519C140.998 21.6738 141.048 21.7956 141.098 21.9174C141.198 22.1599 141.297 22.4024 141.397 22.6449C141.675 23.3217 141.952 23.9985 142.23 24.6754C142.306 24.8608 142.382 25.0462 142.458 25.2316C142.483 25.2928 142.508 25.354 142.534 25.417C142.685 25.7834 142.835 26.1497 142.985 26.5161C143.638 28.1061 144.29 29.6966 144.94 31.2874C144.993 31.4171 145.046 31.5467 145.099 31.6763C145.244 32.0311 145.389 32.3861 145.533 32.7414C145.564 32.8185 145.596 32.8957 145.628 32.9751C145.689 33.1247 145.75 33.2744 145.81 33.4242C145.837 33.4911 145.865 33.5581 145.893 33.627C145.917 33.6865 145.941 33.746 145.966 33.8072C146.016 33.9427 146.016 33.9427 146.103 34.0199C146.138 33.9342 146.173 33.8485 146.209 33.7602C146.983 31.8667 147.758 29.9736 148.535 28.0812C148.686 27.7135 148.837 27.3459 148.988 26.9782C149.013 26.917 149.038 26.8559 149.064 26.7929C149.14 26.6074 149.216 26.4218 149.292 26.2363C149.85 24.8761 149.85 24.8761 150.123 24.21C150.711 22.7782 151.298 21.346 151.884 19.9134C152.198 19.1453 152.512 18.3773 152.827 17.6097C152.855 17.5419 152.883 17.4741 152.912 17.4042C153.043 17.0831 153.175 16.762 153.307 16.441C153.354 16.3259 153.402 16.2108 153.449 16.0957C153.48 16.0204 153.48 16.0204 153.512 15.9435C153.677 15.5405 153.838 15.1363 154 14.7318C157.308 14.7318 160.616 14.7318 164.024 14.7318C163.958 15.0627 163.872 15.3224 163.745 15.6324C163.713 15.7098 163.713 15.7098 163.681 15.7888C163.611 15.9619 163.54 16.1347 163.469 16.3075C163.418 16.4318 163.367 16.5562 163.316 16.6805C163.206 16.9504 163.096 17.2202 162.985 17.49C162.804 17.9322 162.624 18.3748 162.443 18.8173C161.577 20.9417 160.708 23.065 159.839 25.1882C159.643 25.6689 159.446 26.1496 159.249 26.6303C159.221 26.6986 159.193 26.7669 159.165 26.8373C158.676 28.0318 158.188 29.2265 157.701 30.4214C157.224 31.5882 156.748 32.7548 156.27 33.9211C155.817 35.0296 155.364 36.1383 154.911 37.2473C154.403 38.4929 153.894 39.7382 153.385 40.9833C152.931 42.0917 152.478 43.2005 152.026 44.3094C151.542 45.4946 151.058 46.6796 150.573 47.8643C150.531 47.9668 150.531 47.9668 150.489 48.0714C150.264 48.6196 150.04 49.1678 149.816 49.716C149.619 50.1967 149.422 50.6774 149.226 51.158C149.198 51.2264 149.17 51.2947 149.141 51.3651C148.716 52.4025 148.293 53.44 147.869 54.4778C147.774 54.711 147.679 54.9441 147.584 55.1773C147.521 55.3318 147.458 55.4862 147.394 55.6407C147.363 55.717 147.332 55.7934 147.3 55.872C147.105 56.35 146.91 56.8281 146.715 57.3062C146.588 57.62 146.46 57.9337 146.332 58.2474C146.271 58.3962 146.21 58.545 146.15 58.6939C146.067 58.8983 145.983 59.1027 145.9 59.3071C145.863 59.3984 145.863 59.3984 145.825 59.4915C145.656 59.9059 145.656 59.9059 145.571 59.9905C145.441 59.9978 145.311 59.9998 145.181 59.9996C145.097 59.9997 145.013 59.9998 144.926 60C144.832 59.9997 144.739 59.9994 144.642 59.9991C144.545 59.9991 144.447 59.9991 144.346 59.9992C144.077 59.9992 143.808 59.9987 143.539 59.9982C143.259 59.9977 142.978 59.9977 142.697 59.9976C142.165 59.9974 141.633 59.9967 141.101 59.996C140.496 59.9951 139.89 59.9947 139.285 59.9943C138.039 59.9935 136.793 59.9922 135.547 59.9905C136.039 58.6753 136.039 58.6753 136.252 58.1306C136.284 58.0477 136.284 58.0476 136.317 57.963C136.388 57.7813 136.459 57.5997 136.53 57.4181C136.555 57.3533 136.58 57.2885 136.606 57.2218C137.348 55.3217 138.103 53.4266 138.856 51.5308C139.129 50.8439 139.402 50.1569 139.674 49.4698C139.735 49.3166 139.795 49.1634 139.856 49.0102C139.885 48.9381 139.914 48.866 139.943 48.7916C139.971 48.7217 139.999 48.6517 140.027 48.5796C140.081 48.4445 140.134 48.3091 140.186 48.1735C140.303 47.871 140.424 47.5732 140.562 47.2795C140.783 46.7925 140.925 46.4207 140.744 45.8878C140.683 45.7526 140.622 45.6175 140.556 45.4848C140.452 45.2758 140.357 45.0626 140.262 44.8494C140.206 44.7251 140.15 44.6009 140.093 44.4769C139.817 43.8678 139.567 43.2489 139.32 42.6275C139.299 42.5746 139.278 42.5216 139.256 42.4671C139.148 42.1949 139.04 41.9226 138.932 41.6502C138.725 41.1277 138.517 40.6058 138.309 40.0839C138.289 40.0333 138.269 39.9826 138.248 39.9305C137.961 39.2115 137.668 38.4951 137.37 37.7803C137.05 37.0092 136.735 36.236 136.425 35.4604C136.395 35.3834 136.395 35.3834 136.363 35.3049C136.197 34.8876 136.031 34.4702 135.865 34.0527C135.719 33.6882 135.574 33.3236 135.429 32.9592C135.398 32.8822 135.398 32.8822 135.367 32.8037C135.078 32.0805 134.783 31.3598 134.484 30.6407C134.164 29.8701 133.849 29.0974 133.54 28.3222C133.519 28.2709 133.499 28.2197 133.478 28.1668C133.311 27.7495 133.145 27.3321 132.979 26.9146C132.834 26.55 132.689 26.1855 132.543 25.821C132.512 25.7441 132.512 25.7441 132.481 25.6656C132.192 24.9423 131.898 24.2217 131.599 23.5026C131.278 22.732 130.963 21.9593 130.654 21.1841C130.634 21.1328 130.613 21.0815 130.592 21.0287C130.426 20.6114 130.259 20.194 130.093 19.7765C129.948 19.4119 129.803 19.0474 129.657 18.6829C129.637 18.6323 129.617 18.5816 129.596 18.5294C129.371 17.9646 129.143 17.401 128.909 16.8397C128.888 16.7891 128.867 16.7386 128.846 16.6865C128.746 16.4466 128.645 16.2069 128.544 15.9675C128.509 15.8826 128.473 15.7977 128.437 15.7102C128.406 15.6365 128.375 15.5627 128.343 15.4867C128.249 15.2403 128.178 14.9854 128.105 14.7318Z" fill="white"/>
<path d="M121.119 15.7189C121.174 15.7447 121.229 15.7704 121.285 15.7969C122.476 16.3641 123.602 17.0215 124.688 17.7692C124.505 18.3427 124.288 18.899 124.064 19.4574C124.025 19.5545 123.986 19.6517 123.947 19.7489C123.866 19.9523 123.784 20.1557 123.702 20.3591C123.6 20.6144 123.498 20.8697 123.395 21.1251C122.92 22.312 122.441 23.4973 121.955 24.6795C121.634 24.558 121.374 24.3966 121.096 24.2002C118.574 22.4822 115.34 21.1146 112.244 21.0951C112.189 21.0946 112.134 21.0942 112.077 21.0938C111.96 21.093 111.844 21.0925 111.728 21.0922C111.554 21.0915 111.38 21.0892 111.206 21.0868C109.727 21.0761 108.194 21.3236 107.083 22.383C106.589 22.9231 106.436 23.5322 106.448 24.253C106.489 24.7774 106.674 25.2108 107.037 25.5929C108.491 26.7671 110.712 27.0163 112.483 27.4222C112.734 27.48 112.986 27.5383 113.237 27.5967C113.542 27.6674 113.846 27.7378 114.151 27.8081C114.235 27.8276 114.235 27.8276 114.321 27.8475C114.982 28.0002 115.643 28.1438 116.31 28.2721C117.66 28.5515 118.966 29.0222 120.208 29.6155C120.265 29.6426 120.323 29.6697 120.382 29.6976C122.51 30.7186 124.175 32.3144 124.992 34.5514C125.83 37.0157 125.725 39.9316 124.613 42.2963C123.355 44.801 120.91 46.4969 118.306 47.3745C116.292 48.0216 114.19 48.3776 112.073 48.3874C111.995 48.388 111.917 48.3885 111.837 48.3891C111.587 48.3904 111.337 48.3909 111.086 48.391C110.957 48.3911 110.957 48.3911 110.826 48.3912C105.557 48.3862 100.334 47.3107 95.9082 44.3473C96.0587 43.8167 96.2373 43.3037 96.4392 42.7906C96.4682 42.716 96.4973 42.6414 96.5272 42.5645C96.6212 42.3234 96.7156 42.0824 96.81 41.8414C96.9404 41.5076 97.0707 41.1738 97.2009 40.84C97.2332 40.7572 97.2655 40.6745 97.2988 40.5893C97.4981 40.0777 97.6936 39.565 97.8855 39.0507C97.9309 38.9296 97.9763 38.8085 98.0217 38.6873C98.0848 38.519 98.1475 38.3507 98.2093 38.1819C98.265 38.0298 98.3216 37.8782 98.3785 37.7265C98.4095 37.6425 98.4405 37.5584 98.4724 37.4717C98.566 37.2852 98.566 37.2852 98.7938 37.2092C98.9386 37.2734 98.9386 37.2734 99.1029 37.3771C99.164 37.415 99.2251 37.4528 99.2881 37.4918C99.3536 37.5332 99.4192 37.5747 99.4868 37.6174C99.6256 37.7026 99.7647 37.7877 99.9038 37.8725C99.9732 37.9148 100.043 37.9572 100.114 38.0008C103.917 40.2938 109.311 41.7831 113.735 40.7261C114.503 40.5052 115.322 40.1565 115.804 39.4873C116.167 38.8296 116.268 38.222 116.112 37.4845C115.938 36.902 115.57 36.4923 115.065 36.1627C114.181 35.695 113.216 35.4543 112.25 35.2224C112.154 35.1994 112.059 35.1764 111.96 35.1528C111.207 34.9723 110.451 34.8022 109.695 34.6348C109.58 34.6094 109.466 34.5841 109.352 34.5588C108.888 34.4559 108.424 34.3532 107.96 34.2518C104.553 33.5071 100.606 32.5909 98.4853 29.5422C97.0998 27.3772 96.7435 24.6813 97.2513 22.1784C97.8422 19.5285 99.5864 17.5003 101.825 16.0568C103.237 15.1733 104.779 14.6097 106.388 14.2002C106.479 14.1764 106.479 14.1764 106.572 14.1522C111.292 12.9543 116.759 13.6593 121.119 15.7189Z" fill="white"/>
<path d="M19.5159 0C23.8762 0 28.2366 0 32.729 0C32.6436 0.51255 32.6436 0.51255 32.5431 0.755017C32.5206 0.810021 32.4981 0.865024 32.4748 0.921695C32.4502 0.980602 32.4255 1.03951 32.4001 1.1002C32.374 1.16351 32.3479 1.22682 32.3211 1.29205C32.2344 1.50227 32.1471 1.71221 32.0598 1.92217C31.998 2.0719 31.9362 2.22167 31.8745 2.37145C31.7444 2.68706 31.6141 3.00259 31.4837 3.31807C31.2001 4.00487 30.9196 4.69295 30.6391 5.38104C30.545 5.61194 30.4508 5.84281 30.3566 6.07368C28.9004 9.6419 28.9004 9.6419 27.4507 13.2128C27.0461 14.2119 26.6391 15.21 26.2316 16.2079C26.2 16.2854 26.1683 16.3628 26.1357 16.4427C26.1039 16.5206 26.0721 16.5985 26.0393 16.6788C25.5524 17.8711 25.066 19.0636 24.58 20.2563C24.5445 20.3434 24.509 20.4305 24.4725 20.5202C24.0213 21.6277 23.5711 22.7356 23.1223 23.844C22.7177 24.8431 22.3107 25.8412 21.9032 26.8391C21.8716 26.9166 21.8399 26.9941 21.8073 27.0739C21.7755 27.1518 21.7437 27.2298 21.7109 27.31C21.224 28.5024 20.7375 29.6948 20.2516 30.8875C20.2161 30.9746 20.1806 31.0617 20.144 31.1514C19.6928 32.2589 19.2426 33.3668 18.7938 34.4752C18.3892 35.4743 17.9823 36.4725 17.5748 37.4704C17.5431 37.5478 17.5115 37.6253 17.4789 37.7051C17.4312 37.822 17.4312 37.822 17.3825 37.9413C16.8956 39.1336 16.4091 40.3261 15.9231 41.5188C15.8879 41.6052 15.8527 41.6916 15.8164 41.7806C15.3939 42.8178 14.972 43.8552 14.5514 44.8933C14.4819 45.0649 14.4124 45.2365 14.3428 45.408C14.321 45.4619 14.2992 45.5157 14.2768 45.5711C14.2345 45.6753 14.1923 45.7794 14.1501 45.8836C14.0533 46.1223 13.9567 46.3609 13.86 46.5996C13.7616 46.8425 13.663 47.0852 13.5643 47.328C13.5367 47.3964 13.509 47.4647 13.4806 47.5352C13.2978 47.9837 13.2978 47.9837 13.2131 48.0684C13.043 48.0757 12.8726 48.0776 12.7024 48.0775C12.6483 48.0776 12.5943 48.0776 12.5387 48.0777C12.3563 48.0778 12.1739 48.0774 11.9916 48.077C11.8614 48.077 11.7312 48.077 11.601 48.077C11.2464 48.077 10.8919 48.0766 10.5373 48.0761C10.1672 48.0756 9.79705 48.0756 9.42693 48.0755C8.72553 48.0752 8.02414 48.0746 7.32275 48.0738C6.52446 48.073 5.72616 48.0726 4.92787 48.0722C3.28525 48.0714 1.64262 48.0701 0 48.0684C0.0475595 47.8201 0.103644 47.597 0.199873 47.3631C0.225433 47.3005 0.250993 47.2378 0.277327 47.1733C0.305331 47.1057 0.333334 47.0381 0.362186 46.9685C0.406361 46.8606 0.406361 46.8606 0.451429 46.7507C0.54902 46.5127 0.647082 46.2749 0.745136 46.037C0.814039 45.8692 0.882906 45.7014 0.951739 45.5335C1.09488 45.1845 1.23818 44.8356 1.38159 44.4867C1.67585 43.7705 1.9682 43.0536 2.26055 42.3366C2.41839 41.9495 2.57637 41.5626 2.73434 41.1756C2.79765 41.0205 2.86095 40.8654 2.92426 40.7103C3.08092 40.3265 3.2376 39.9427 3.3943 39.5589C4.1214 37.7781 4.84784 35.997 5.57342 34.2155C6.10022 32.9221 6.62765 31.629 7.15554 30.3361C7.65657 29.109 8.15688 27.8816 8.65686 26.654C9.19113 25.3423 9.72575 24.0308 10.261 22.7195C10.2921 22.6433 10.3233 22.5671 10.3553 22.4886C10.6049 21.8771 10.8546 21.2656 11.1043 20.6542C11.3231 20.1181 11.542 19.5821 11.7608 19.046C11.7919 18.9699 11.823 18.8937 11.855 18.8152C12.3943 17.4942 12.9327 16.1729 13.4709 14.8515C13.9977 13.5581 14.5251 12.265 15.053 10.9721C15.5891 9.65914 16.1244 8.34585 16.6593 7.03241C17.0429 6.09037 17.4268 5.14843 17.8115 4.20681C17.8457 4.12305 17.8799 4.03929 17.9152 3.95299C18.0767 3.55753 18.2383 3.16208 18.4 2.76667C18.4585 2.6234 18.5171 2.48013 18.5756 2.33685C18.6004 2.27633 18.6251 2.21581 18.6507 2.15345C18.9431 1.43722 19.2286 0.718372 19.5159 0Z" fill="white"/>
<path d="M179.097 13.8053C179.206 13.8045 179.206 13.8045 179.318 13.8037C182.348 13.7864 182.348 13.7864 183.769 14.0485C183.855 14.064 183.942 14.0795 184.031 14.0955C187.348 14.7016 190.401 15.9359 193.185 17.8454C193.144 18.357 192.961 18.7927 192.768 19.2651C192.733 19.3512 192.699 19.4373 192.663 19.526C192.57 19.757 192.477 19.9878 192.383 20.2185C192.307 20.4083 192.23 20.5983 192.154 20.7883C191.62 22.1142 191.081 23.4382 190.527 24.7557C190.286 24.7081 190.117 24.625 189.911 24.4911C189.85 24.4519 189.789 24.4127 189.726 24.3723C189.627 24.3083 189.627 24.3083 189.526 24.2431C186.144 22.1183 181.886 20.5148 177.841 21.4029C177.272 21.5445 176.756 21.7224 176.251 22.022C176.177 22.0638 176.177 22.0638 176.102 22.1065C175.602 22.423 175.258 22.9613 175.071 23.5182C174.951 24.1103 174.958 24.7547 175.264 25.2873C175.301 25.3533 175.301 25.3533 175.34 25.4208C175.808 26.0769 176.729 26.4011 177.468 26.6458C177.527 26.6651 177.585 26.6844 177.645 26.7043C178.346 26.9296 179.062 27.0941 179.78 27.258C180.031 27.3154 180.282 27.3738 180.533 27.4323C181.3 27.6106 182.067 27.7864 182.834 27.96C188.923 29.3386 188.923 29.3386 191.134 31.2863C191.198 31.341 191.262 31.3956 191.328 31.4518C192.557 32.5271 193.693 34.1641 193.809 35.8532C193.817 36.1429 193.822 36.4325 193.823 36.7224C193.824 36.8019 193.824 36.8019 193.824 36.8831C193.827 37.1643 193.828 37.4456 193.829 37.7268C193.829 37.9564 193.832 38.186 193.835 38.4156C193.871 40.8483 193.871 40.8483 193.337 41.9935C193.292 42.0939 193.247 42.1943 193.202 42.2948C192.786 43.1974 192.192 43.9326 191.514 44.6513C191.469 44.7018 191.423 44.7523 191.376 44.8044C189.113 47.2139 185.35 48.2182 182.174 48.4482C182.095 48.4546 182.015 48.461 181.933 48.4677C181.148 48.5269 180.365 48.5394 179.578 48.5384C179.511 48.5383 179.445 48.5383 179.377 48.5382C174.212 48.5286 168.78 47.5175 164.48 44.4994C164.529 44.0666 164.68 43.6911 164.839 43.2895C164.868 43.2155 164.897 43.1414 164.927 43.0652C165.021 42.8233 165.116 42.5816 165.211 42.34C165.277 42.1732 165.342 42.0065 165.407 41.8397C165.506 41.5851 165.606 41.3305 165.705 41.0759C166.026 40.255 166.343 39.4325 166.659 38.6095C166.708 38.4816 166.757 38.3537 166.806 38.2257C166.917 37.9376 167.028 37.6495 167.138 37.3613C167.503 37.4216 167.755 37.5727 168.059 37.7742C170.526 39.3571 173.372 40.3527 176.251 40.8544C176.323 40.8677 176.396 40.881 176.47 40.8947C177.519 41.0811 178.567 41.1051 179.63 41.1107C179.694 41.1113 179.759 41.1119 179.825 41.1126C181.341 41.1235 182.851 40.9336 184.072 39.9432C184.579 39.3518 184.724 38.7999 184.703 38.0296C184.656 37.4461 184.457 36.9697 184.017 36.5753C182.523 35.4902 180.423 35.2593 178.66 34.8686C177.179 34.5403 175.699 34.2113 174.227 33.846C174.081 33.81 174.081 33.81 173.932 33.7734C171.226 33.093 168.338 31.8044 166.831 29.3338C166.21 28.2791 165.881 27.176 165.695 25.9707C165.685 25.9074 165.675 25.844 165.665 25.7788C165.348 23.3115 165.917 20.8072 167.442 18.8326C168.524 17.4476 169.84 16.45 171.391 15.6432C171.442 15.6168 171.492 15.5904 171.545 15.5631C173.846 14.3844 176.518 13.818 179.097 13.8053Z" fill="white"/>
<path d="M35.8418 1.5946C35.8919 1.5946 35.942 1.5946 35.9936 1.5946C37.7159 5.54794 37.7159 5.54794 38.229 6.78208C38.6739 7.85165 39.1297 8.9164 39.5864 9.98094C39.6255 10.0719 39.6645 10.1629 39.7047 10.2567C39.9058 10.7255 40.107 11.1943 40.3083 11.663C40.6944 12.5624 41.0802 13.462 41.4659 14.3616C41.5035 14.4494 41.5411 14.5371 41.5799 14.6276C42.1734 16.012 42.7643 17.3974 43.3541 18.7834C43.9107 20.0916 44.4697 21.3987 45.0302 22.7052C45.627 24.0965 46.222 25.4887 46.8147 26.8818C47.4108 28.2827 48.0088 29.6828 48.6087 31.082C48.6468 31.1708 48.6849 31.2596 48.7241 31.3511C49.021 32.0436 49.318 32.736 49.6151 33.4284C49.8476 33.9704 50.0801 34.5125 50.3126 35.0545C50.3449 35.1299 50.3772 35.2053 50.4105 35.283C50.9669 36.5807 51.5204 37.8796 52.0732 39.1788C52.6472 40.5275 53.2234 41.8753 53.8009 43.2225C53.8776 43.4014 53.9543 43.5803 54.0309 43.7592C54.3383 44.4763 54.6458 45.1934 54.955 45.9098C55.0645 46.1634 55.1738 46.4172 55.2831 46.6709C55.3555 46.8389 55.4283 47.0067 55.5011 47.1746C55.5435 47.273 55.5858 47.3713 55.6282 47.4697C55.6824 47.5949 55.6824 47.5949 55.7376 47.7227C55.8133 47.9164 55.8133 47.9164 55.8133 48.0683C51.1272 48.0683 46.4411 48.0683 41.613 48.0683C40.3226 44.9712 40.3226 44.9712 39.9426 44.0409C39.5031 42.9646 39.0594 41.89 38.6135 40.8163C38.1716 39.7522 37.7323 38.6871 37.2956 37.6208C36.8762 36.5969 36.4544 35.574 36.0316 34.5514C35.5871 33.4763 35.1438 32.4007 34.7027 31.3241C34.2661 30.2587 33.8277 29.1941 33.388 28.13C33.3579 28.0572 33.3279 27.9844 33.2969 27.9093C33.0821 27.3896 32.8672 26.8699 32.6524 26.3502C30.982 22.3099 30.982 22.3099 30.4147 20.9204C30.3665 20.8024 30.3183 20.6845 30.2701 20.5665C30.2469 20.5096 30.2237 20.4528 30.1998 20.3942C30.0668 20.0694 29.9318 19.7455 29.7947 19.4224C29.7327 19.2764 29.6712 19.1302 29.6098 18.9839C29.5367 18.81 29.4627 18.6364 29.3877 18.4633C29.356 18.3877 29.3244 18.312 29.2919 18.2341C29.2504 18.1371 29.2504 18.1371 29.208 18.0381C29.096 17.5948 29.2981 17.2047 29.4743 16.8034C29.4989 16.7462 29.5235 16.689 29.5488 16.6301C29.6023 16.5057 29.6561 16.3814 29.71 16.2572C29.8583 15.9153 30.0048 15.5727 30.1515 15.2301C30.1823 15.1582 30.2131 15.0863 30.2449 15.0122C30.5815 14.2256 30.9078 13.4348 31.2333 12.6435C31.3547 12.3487 31.4761 12.054 31.5976 11.7592C31.628 11.6855 31.6584 11.6117 31.6897 11.5357C32.0354 10.697 32.384 9.85952 32.7331 9.02223C32.7646 8.94666 32.7961 8.87108 32.8285 8.79322C33.8296 6.3923 34.8353 3.99328 35.8418 1.5946Z" fill="white"/>
</svg>
