<svg width="293" height="45" viewBox="0 0 293 45" fill="none" xmlns="http://www.w3.org/2000/svg">
<path d="M0 1.52283C23.5646 1.52283 23.5646 1.52283 27.3861 5.27968C29.6472 8.02968 30.0778 11.1241 29.991 14.6046C29.6425 17.9491 27.6515 20.0865 25.355 22.3625C25.7203 22.4593 25.7203 22.4593 26.0931 22.5579C28.1132 23.568 29.1599 25.2348 30.0005 27.2903C31.0891 30.6198 30.8433 34.064 29.5229 37.2977C27.9153 40.1875 25.4592 42.0521 22.324 43.0137C15.0841 44.7428 7.44348 43.5496 0 43.5496C0 29.6808 0 15.8119 0 1.52283ZM8.33589 9.16406C8.33589 12.1441 8.33589 15.1242 8.33589 18.1946C9.91346 18.2227 11.4905 18.2434 13.0682 18.2597C13.5146 18.2685 13.961 18.2772 14.4209 18.2862C14.853 18.2895 15.285 18.2929 15.7302 18.2964C16.1267 18.3018 16.5232 18.3073 16.9318 18.3129C18.4699 18.1518 19.6234 17.6203 20.7746 16.5882C21.5125 15.1123 21.7953 13.5377 21.3295 11.9305C20.6655 10.5881 19.9589 9.93263 18.5283 9.36248C16.6849 8.91344 14.757 9.0604 12.8729 9.09893C12.4366 9.10364 12.0002 9.10834 11.5507 9.11318C10.479 9.1254 9.40744 9.14409 8.33589 9.16406ZM8.33589 25.8358C8.33589 29.1598 8.33589 32.4837 8.33589 35.9084C9.95487 35.9299 11.5739 35.9514 13.2419 35.9735C13.7488 35.983 14.2557 35.9925 14.7779 36.0022C15.3836 36.0061 15.3836 36.0061 16.0015 36.0101C16.4126 36.0156 16.8237 36.021 17.2472 36.0267C19.0486 35.8431 20.1488 35.2843 21.2956 33.8895C22.1468 32.2816 22.3267 31.2554 22.012 29.4611C21.4582 28.0766 20.984 27.4331 19.7977 26.5305C17.3704 25.7167 15.0441 25.7549 12.5038 25.7924C11.1284 25.8067 9.75299 25.8211 8.33589 25.8358Z" fill="white"/>
<path d="M261.886 1.52283C284.322 1.52283 284.322 1.52283 288.717 5.58223C292.255 9.31742 292.84 14.1856 292.869 19.1077C292.871 19.3831 292.873 19.6584 292.875 19.9421C292.878 20.5215 292.88 21.1008 292.881 21.6802C292.885 22.5475 292.896 23.4145 292.907 24.2817C292.939 29.1937 292.825 34.3121 289.672 38.3397C289.497 38.5631 289.323 38.7865 289.143 39.0167C286.474 42.0171 283.095 42.8509 279.252 43.5496C273.521 43.5496 267.79 43.5496 261.886 43.5496C261.886 29.6808 261.886 15.8119 261.886 1.52283ZM270.569 9.16406C270.569 17.9897 270.569 26.8153 270.569 35.9084C276.575 36.4043 276.575 36.4043 281.768 34.2423C281.955 34.0184 282.142 33.7945 282.335 33.5639C282.527 33.3436 282.72 33.1233 282.918 32.8964C284.179 30.8655 284.222 28.7343 284.219 26.4138C284.221 25.956 284.221 25.956 284.224 25.4889C284.226 24.8461 284.226 24.2033 284.224 23.5606C284.223 22.5849 284.231 21.6096 284.24 20.634C284.241 20.0063 284.241 19.3786 284.241 18.7509C284.244 18.4631 284.247 18.1754 284.251 17.879C284.232 15.46 283.822 13.253 282.313 11.3132C278.263 8.16279 276.4 9.16406 270.569 9.16406Z" fill="white"/>
<path d="M218.816 1.52283C241.652 1.52283 241.652 1.52283 245.452 5.06124C248.25 8.05667 249.207 11.4609 249.122 15.4947C248.803 18.9785 247.282 21.3865 244.892 23.8523C243.913 24.6601 242.847 25.214 241.74 25.8358C242.658 27.6234 243.578 29.4107 244.497 31.1977C244.632 31.4597 244.767 31.7217 244.905 31.9916C246.568 35.2236 248.235 38.4533 249.959 41.6535C250.771 43.1676 250.771 43.1676 250.771 43.5496C247.561 43.5496 244.352 43.5496 241.045 43.5496C239.982 41.4222 239.982 41.4222 239.6 40.658C238.83 39.1141 238.055 37.5721 237.278 36.0317C236.8 35.0861 236.324 34.1399 235.848 33.1937C235.608 32.7163 235.367 32.2391 235.125 31.7621C234.782 31.0835 234.44 30.404 234.099 29.7243C233.898 29.3268 233.698 28.9292 233.491 28.5197C233.057 27.5725 233.057 27.5725 233.057 26.8778C231.108 26.8778 229.16 26.8778 227.152 26.8778C227.152 32.3795 227.152 37.8812 227.152 43.5496C224.401 43.5496 221.651 43.5496 218.816 43.5496C218.816 29.6808 218.816 15.8119 218.816 1.52283ZM227.152 9.16406C227.152 12.7172 227.152 16.2704 227.152 19.9312C228.349 19.9456 229.545 19.9599 230.778 19.9747C231.333 19.9841 231.333 19.9841 231.9 19.9938C235.632 20.0175 235.632 20.0175 238.918 18.4768C240.055 16.9727 240.82 15.5976 240.72 13.6793C240.433 12.0569 239.527 10.89 238.267 9.85872C236.905 9.1947 235.816 9.08194 234.309 9.09622C233.933 9.09796 233.556 9.09969 233.168 9.10148C232.458 9.11096 232.458 9.11096 231.733 9.12064C229.465 9.14213 229.465 9.14213 227.152 9.16406Z" fill="white"/>
<path d="M187.855 1.4834C188.267 1.48613 188.267 1.48613 188.688 1.48891C189.133 1.49059 189.133 1.49059 189.587 1.4923C189.898 1.49521 190.21 1.49812 190.532 1.50112C190.845 1.50269 191.158 1.50426 191.481 1.50587C192.257 1.50998 193.033 1.5157 193.809 1.52283C195.437 5.21909 196.785 9.01852 198.161 12.8132C198.888 14.8185 199.619 16.8226 200.349 18.8269C200.572 19.4394 200.572 19.4394 200.8 20.0643C202.335 24.2794 203.888 28.4882 205.445 32.6956C205.57 33.0342 205.695 33.3729 205.824 33.7218C206.179 34.6804 206.534 35.639 206.889 36.5976C206.991 36.8754 207.094 37.1532 207.2 37.4395C207.297 37.7015 207.394 37.9635 207.494 38.2335C207.586 38.4826 207.678 38.7318 207.773 38.9885C207.962 39.4951 208.156 40.0001 208.353 40.5037C209.092 42.4007 209.092 42.4007 209.092 43.5496C206.112 43.5496 203.132 43.5496 200.061 43.5496C199.718 42.475 199.374 41.4005 199.019 40.2934C198.911 39.9552 198.802 39.617 198.69 39.2685C198.605 39.0023 198.52 38.7361 198.433 38.4618C198.346 38.1889 198.259 37.9161 198.169 37.635C197.977 36.9504 197.977 36.9504 197.977 36.2557C193.163 36.3703 188.349 36.4849 183.39 36.603C182.587 38.8954 181.785 41.1878 180.958 43.5496C177.978 43.5496 174.998 43.5496 171.928 43.5496C172.599 41.0875 173.282 38.741 174.17 36.3656C174.287 36.0495 174.404 35.7333 174.524 35.4076C174.909 34.3656 175.296 33.3244 175.683 32.2831C176.097 31.1642 176.511 30.0451 176.925 28.926C177.218 28.1314 177.512 27.3369 177.806 26.5425C178.896 23.5964 179.978 20.6472 181.055 17.6964C181.32 16.9712 181.585 16.2461 181.85 15.521C182.89 12.677 182.89 12.677 183.927 9.83244C184.256 8.93009 184.586 8.02792 184.916 7.12597C185.217 6.30163 185.518 5.47703 185.818 4.65213C186.018 4.10783 186.018 4.10783 186.221 3.55253C186.337 3.23442 186.453 2.91631 186.573 2.58856C186.998 1.53581 186.998 1.53581 187.855 1.4834ZM190.336 15.0686C189.692 16.8856 189.049 18.7031 188.407 20.5211C188.188 21.1398 187.969 21.7584 187.75 22.3768C187.435 23.2644 187.122 24.1526 186.809 25.0408C186.66 25.4571 186.66 25.4571 186.509 25.8817C186.004 27.2155 186.004 27.2155 185.821 28.6145C188.916 28.6145 192.01 28.6145 195.199 28.6145C194.755 26.6156 194.323 24.8186 193.676 22.9039C193.6 22.677 193.524 22.4502 193.446 22.2164C193.207 21.5049 192.965 20.794 192.724 20.0832C192.56 19.5955 192.396 19.1077 192.232 18.6199C191.833 17.4356 191.432 16.252 191.031 15.0686C190.802 15.0686 190.572 15.0686 190.336 15.0686Z" fill="white"/>
<path d="M162.202 4.3013C162.789 4.7542 163.37 5.21472 163.939 5.69062C163.739 6.87584 163.381 7.40423 162.494 8.20332C162.275 8.40256 162.057 8.6018 161.832 8.80708C161.603 9.01079 161.374 9.21451 161.138 9.4244C160.908 9.63349 160.678 9.84258 160.44 10.058C159.872 10.5731 159.302 11.0853 158.729 11.5952C158.514 11.4528 158.3 11.3104 158.079 11.1638C154.967 9.18365 151.85 8.22984 148.161 8.99024C146.435 9.48741 145.462 10.0134 144.488 11.5952C143.948 12.6752 144.041 13.5273 144.141 14.7212C144.884 16.2659 145.601 16.9681 147.183 17.6068C149.181 18.2237 151.305 18.3956 153.372 18.6713C157.508 19.2702 160.614 20.3975 163.331 23.6432C165.099 26.9902 165.578 30.838 164.74 34.5379C163.46 38.4056 161.3 40.6566 157.687 42.5075C152.215 44.6786 145.111 44.6475 139.657 42.3053C137.569 41.327 135.8 40.2004 134.068 38.6868C134.527 37.6684 135.022 36.9548 135.819 36.1741C136.02 35.9749 136.222 35.7757 136.429 35.5704C136.639 35.3667 136.848 35.1629 137.064 34.9531C137.276 34.744 137.489 34.5349 137.707 34.3195C138.229 33.8055 138.754 33.2936 139.278 32.7823C140.258 33.258 141.187 33.7867 142.122 34.3452C145.371 36.1331 149.104 36.3937 152.74 35.7345C153.971 35.3771 154.796 34.9566 155.798 34.1499C156.606 32.4986 156.636 30.6672 156.05 28.9196C155.245 27.7457 154.173 27.296 152.81 26.9804C152.424 26.9263 152.038 26.8723 151.64 26.8166C151.21 26.751 150.78 26.6854 150.337 26.6178C149.443 26.4886 148.55 26.3619 147.656 26.238C143.601 25.6114 139.988 24.4154 137.428 21.064C135.192 17.8589 135.201 14.3157 135.805 10.5532C136.135 9.41 136.582 8.44509 137.194 7.42726C137.409 7.06393 137.409 7.06393 137.627 6.69326C139.607 3.7154 143.043 2.02512 146.491 1.32866C152.016 0.57461 157.403 1.3763 162.202 4.3013Z" fill="white"/>
<path d="M122.606 4.3013C123.193 4.7542 123.775 5.21472 124.343 5.69062C124.144 6.87584 123.785 7.40423 122.898 8.20332C122.68 8.40256 122.461 8.6018 122.237 8.80708C122.008 9.01079 121.779 9.21451 121.543 9.4244C121.312 9.63349 121.082 9.84258 120.845 10.058C120.276 10.5731 119.706 11.0853 119.133 11.5952C118.919 11.4528 118.704 11.3104 118.483 11.1638C115.371 9.18365 112.254 8.22984 108.565 8.99024C106.839 9.48741 105.866 10.0134 104.893 11.5952C104.353 12.6752 104.446 13.5273 104.545 14.7212C105.292 16.2742 106.01 16.9654 107.6 17.6068C109.514 18.2072 111.541 18.3926 113.521 18.6713C116.908 19.1849 120.712 19.8871 122.954 22.7097C125.196 26.4566 126.114 30.192 125.147 34.546C123.848 38.4077 121.709 40.6541 118.091 42.5075C112.619 44.6786 105.515 44.6475 100.061 42.3053C97.9731 41.327 96.2046 40.2004 94.4727 38.6868C94.9315 37.6684 95.4266 36.9548 96.2229 36.1741C96.4243 35.9749 96.6258 35.7757 96.8334 35.5704C97.0429 35.3667 97.2525 35.1629 97.4684 34.9531C97.6806 34.744 97.8928 34.5349 98.1115 34.3195C98.6336 33.8055 99.1579 33.2936 99.6826 32.7823C100.663 33.258 101.591 33.7867 102.526 34.3452C105.775 36.1331 109.509 36.3937 113.144 35.7345C114.375 35.3771 115.2 34.9566 116.202 34.1499C117.01 32.4986 117.041 30.6672 116.455 28.9196C115.649 27.7457 114.577 27.296 113.215 26.9804C112.828 26.9263 112.442 26.8723 112.044 26.8166C111.614 26.751 111.184 26.6854 110.741 26.6178C109.848 26.4886 108.954 26.3619 108.06 26.238C104.005 25.6114 100.393 24.4154 97.832 21.064C95.5968 17.8589 95.605 14.3157 96.2093 10.5532C96.5391 9.41 96.9863 8.44509 97.5986 7.42726C97.8129 7.06393 97.8129 7.06393 98.0314 6.69326C100.011 3.7154 103.447 2.02512 106.895 1.32866C112.42 0.57461 117.808 1.3763 122.606 4.3013Z" fill="white"/>
<path d="M44.8054 9.85864C46.4287 11.0149 47.9926 12.2424 49.516 13.5273C49.968 13.9041 49.968 13.9041 50.4291 14.2884C51.0573 15.0686 51.0573 15.0686 51.0139 15.9355C50.8634 16.366 50.8634 16.366 50.7099 16.8052C50.6235 17.0595 50.5371 17.3138 50.4481 17.5759C50.3554 17.8373 50.2627 18.0988 50.1672 18.3682C49.0752 22.0119 49.4723 25.53 51.0573 28.9617C53.0569 32.4565 56.2183 34.8937 60.0173 36.1077C64.5053 36.9751 68.2431 35.863 72.2443 33.8243C72.525 34.084 72.8058 34.3437 73.095 34.6112C73.4699 34.9568 73.8448 35.3023 74.2198 35.6478C74.404 35.8184 74.5882 35.989 74.7781 36.1647C75.8685 37.1682 76.979 38.1227 78.1489 39.0343C77.6344 40.5214 76.573 41.0875 75.2617 41.8129C74.9387 41.9943 74.9387 41.9943 74.6091 42.1793C69.1498 45.1356 62.94 45.7444 56.9593 44.117C53.1677 42.911 49.9815 40.8598 47.2367 37.9923C47.0213 37.7877 46.8059 37.583 46.5841 37.3722C42.7353 33.4546 41.119 27.8983 40.8545 22.5361C41.0596 17.8819 42.3862 13.818 44.8054 9.85864Z" fill="white"/>
<path d="M79.5381 7.42737C79.882 7.42737 80.2258 7.42737 80.5801 7.42737C84.666 11.8101 86.074 17.6084 86.1374 23.4045C85.9162 27.8776 84.5106 32.4251 81.6221 35.9083C79.7969 35.3848 78.6769 34.196 77.3456 32.9126C77.1215 32.7004 76.8974 32.4882 76.6666 32.2695C76.1165 31.748 75.5687 31.2243 75.0228 30.6984C75.1402 30.4548 75.2575 30.2113 75.3783 29.9603C77.3124 25.8462 78.048 22.5291 76.7608 18.0955C76.3081 16.8713 75.6952 15.8038 74.9849 14.7118C74.6755 14.0266 74.6755 14.0266 74.6823 13.3754C75.205 12.2426 76.0549 11.4187 76.9114 10.5316C78.3158 9.05611 78.3158 9.05611 79.5381 7.42737Z" fill="white"/>
<path d="M76.0653 3.60672C76.4091 4.1225 76.4091 4.1225 76.7599 4.6487C76.6144 4.80289 76.469 4.95708 76.3191 5.11594C75.662 5.81326 75.0061 6.51174 74.3503 7.21025C74.1213 7.45292 73.8923 7.69559 73.6563 7.94561C73.4381 8.17843 73.2198 8.41125 72.9949 8.65112C72.6921 8.97307 72.6921 8.97307 72.3831 9.30152C71.8673 9.846 71.8673 9.846 71.55 10.5533C69.466 9.85863 69.466 9.85863 68.7415 9.59271C65.0505 8.27173 61.5752 8.09833 57.8902 9.65105C56.4825 10.3464 55.1429 11.0715 53.8362 11.9426C53.047 11.2702 52.2584 10.5972 51.4701 9.92376C51.2469 9.7337 51.0237 9.54364 50.7937 9.34782C50.5777 9.16313 50.3617 8.97844 50.1391 8.78816C49.9408 8.619 49.7426 8.44984 49.5383 8.27556C48.9804 7.78069 48.4533 7.26537 47.9316 6.73268C49.0183 4.04836 52.3856 2.61766 54.9148 1.54581C61.8301 -1.00192 69.8003 -0.457944 76.0653 3.60672Z" fill="white"/>
</svg>
