<?xml version="1.0" encoding="UTF-8"?>
<svg width="199px" height="33px" viewBox="0 0 199 33" version="1.1" xmlns="http://www.w3.org/2000/svg" xmlns:xlink="http://www.w3.org/1999/xlink">
    <!-- Generator: Sketch 59.1 (86144) - https://sketch.com -->
    <title>Vector Smart Object</title>
    <desc>Created with Sketch.</desc>
    <g id="Vector-Smart-Object" stroke="none" stroke-width="1" fill="none" fill-rule="evenodd">
        <path d="M14.3187,19.9208 C14.7787,19.1168 15.1707,18.4678 15.1887,18.4788 C16.1007,19.0318 18.1977,20.1868 18.1727,20.1228 C18.1547,20.0738 17.7557,19.3738 17.2867,18.5658 C16.6277,17.4298 16.4497,17.0878 16.5027,17.0538 C16.5397,17.0308 17.2207,16.6338 18.0157,16.1728 L19.4607,15.3348 L17.6787,15.3218 L15.8957,15.3088 L15.8957,13.5598 C15.8957,12.5978 15.8797,11.8118 15.8587,11.812799 C15.8377,11.8138 15.4297,12.5008 14.9507,13.3388 C14.4027,14.2978 14.0567,14.8558 14.0177,14.8398 C13.9837,14.8278 13.3097,14.4428 12.5187,13.9868 C11.7277,13.5308 11.0657,13.1638 11.0477,13.1708 C11.0297,13.1788 11.4137,13.8708 11.9007,14.7098 C12.3877,15.5478 12.7837,16.2378 12.7787,16.2428 C12.7747,16.2468 12.0867,16.6468 11.2497,17.1298 L9.7267,18.0088 L13.3467,18.0088 L13.3467,19.7948 C13.3467,21.3078 13.3567,21.5658 13.4137,21.4818 C13.4517,21.4278 13.8577,20.7248 14.3187,19.9208 M12.2577,32.1378 C11.0957,31.4698 10.0647,30.8468 9.9667,30.7528 C9.4907,30.2958 9.2727,29.7538 9.3117,29.1208 C9.3427,28.6008 9.3777,28.5258 10.5657,26.4628 C11.0777,25.5728 11.4967,24.8368 11.4967,24.8258 C11.4967,24.8158 8.9107,24.8078 5.7487,24.8078 L-0.0003,24.8078 L-0.0003,22.4458 C0.0007,21.1468 0.0217,19.9528 0.0477,19.7928 C0.1747,19.0188 0.7307,18.3728 1.4877,18.1198 C1.6827,18.0548 2.0987,18.0358 3.8547,18.0118 L5.9847,17.9838 L3.1427,13.0678 C1.5787,10.3648 0.2997,8.1378 0.3007,8.1198 C0.3017,8.0838 3.7767,6.0618 4.3687,5.7518 C5.0247,5.4088 5.6147,5.3968 6.2857,5.7108 C6.8027,5.9528 6.9637,6.1668 8.0737,8.0868 C8.6297,9.0488 9.1037,9.8358 9.1267,9.8358 C9.1487,9.8358 10.4397,7.6258 11.9947,4.9238 C13.5497,2.2228 14.8337,0.0068 14.8497,-0.000337682864 C14.8987,-0.0212 19.0117,2.3668 19.2267,2.5408 C19.8397,3.0398 20.0987,3.9948 19.8277,4.7618 C19.7647,4.9408 19.2707,5.8518 18.7297,6.7868 L17.7457,8.4858 L23.4687,8.4988 L29.1927,8.5118 L29.1927,10.9758 C29.1927,13.6548 29.1817,13.7898 28.9077,14.2558 C28.6027,14.7778 28.0047,15.1718 27.3837,15.2618 C27.2107,15.2868 26.2077,15.3078 25.1567,15.3088 C24.1047,15.3088 23.2447,15.3208 23.2447,15.3348 C23.2447,15.3488 24.5277,17.5688 26.0957,20.2678 C28.3647,24.1748 28.9337,25.1878 28.8827,25.2338 C28.7367,25.3668 24.7407,27.6538 24.5147,27.7338 C24.1547,27.8618 23.4987,27.8528 23.1447,27.7148 C22.7927,27.5778 22.4197,27.2928 22.2167,27.0068 C22.1287,26.8828 21.6227,26.0328 21.0917,25.1188 C20.3277,23.8018 20.1137,23.4678 20.0667,23.5188 C20.0137,23.5758 17.1747,28.5138 15.1527,32.0668 C14.7507,32.7738 14.4107,33.3518 14.3967,33.3528 C14.3827,33.3528 13.4207,32.8058 12.2577,32.1378" id="Symbol" fill="#FFFFFF"></path>
        <path d="M45.5182,15.6058 L54.8932,15.6058 L54.8932,20.0078 C54.8932,21.3558 54.6512,22.2708 53.3382,23.0828 C52.4582,23.6348 50.6792,23.7558 48.9702,23.7558 L42.8582,23.7558 C41.0792,23.7558 39.9062,23.5478 38.4902,22.5128 C37.2132,21.5628 37.2301942,18.9208 37.2301942,17.6258 L37.2301942,15.3128 C37.2301942,12.6028 37.8342,11.3238 38.7142,10.6678 C39.8882,9.7868 42.3052,9.7348 43.1172,9.7348 L49.8162,9.7348 C50.1272,9.7348 52.4752,9.8738 53.2012,10.3568 C54.5302,11.2548 54.8072,12.1518 54.8072,13.5508 L54.8072,14.4498 L50.7152,14.4498 C50.7842,13.9658 50.7492,13.7078 50.3512,13.4128 C49.9722,13.1368 49.2292,13.0328 48.4872,13.0328 L44.0502,13.0328 C43.6872,13.0328 42.7892,12.9638 42.2712,13.3098 C41.7362,13.6718 41.5122,14.1208 41.5122,14.7598 L41.5122,18.0758 C41.5122,18.7658 41.5812,19.2838 42.0302,19.8188 C42.3232,20.1638 43.2372,20.4228 43.6702,20.4228 L49.0392,20.4228 C49.6792,20.4228 50.1792,20.3018 50.5252,19.8708 C50.8362,19.4908 50.9562,19.1448 50.8872,18.5068 L45.5182,18.5068 L45.5182,15.6058" id="Fill-4" fill="#FFFFFF"></path>
        <path d="M69.6559,9.7347 C71.4009,9.7347 72.6779,9.7867 74.0599,10.8057 C75.9239,12.1877 75.7519,14.6217 75.7519,15.7447 L75.7519,17.3667 C75.7519,18.9387 75.8199,21.4417 74.3689,22.5817 C73.3169,23.4107 71.6939,23.7037 69.9319,23.7037 L62.0069,23.7037 C60.3669,23.7037 59.1239,23.4977 57.7599,22.4607 C56.5169,21.4937 56.6889,18.7487 56.6889,17.4367 L56.6889,15.7447 C56.6889,14.4317 56.6369,11.9097 58.1389,10.6677 C59.3309,9.7007 60.5559,9.7347 62.1449,9.7347 L69.6559,9.7347 L69.6559,9.7347 Z M63.5099,13.0327 C63.1469,13.0327 62.2479,12.9637 61.7479,13.3267 C61.0739,13.7577 60.9888091,14.4497 60.9888091,15.2607 L60.9888091,18.1097 C60.9888091,18.8007 60.9719,19.3347 61.4029,19.8527 C61.7149,20.1997 62.7159,20.4227 63.1469,20.4227 L68.9139,20.4227 C69.5529,20.4227 70.1229,20.2507 70.4679,19.9917 C70.9509,19.6297 71.0719,19.1107 71.0719,18.4897 L71.0719,14.8457 C71.0719,14.2587 70.9509,13.8107 70.5019,13.4297 C70.0529,13.0507 69.5349,13.0327 68.8969,13.0327 L63.5099,13.0327 Z" id="Fill-6" fill="#FFFFFF"></path>
        <polygon id="Fill-8" fill="#FFFFFF" points="81.5873 9.7347 81.5873 20.4227 92.0333 20.4227 92.0333 23.7037 77.4953 23.7037 77.4953 9.7347"></polygon>
        <path d="M105.9847,9.7347 C106.6067,9.7347 108.8337,9.9247 109.9037,10.6337 C111.9067,11.9627 111.6307,14.4317 111.6307,15.3127 L111.6307,17.7127 C111.6307,19.9737 111.7687,21.2697 110.2147,22.4947 C109.1627,23.3227 107.5217,23.7037 105.7087,23.7037 L93.3107,23.7037 L93.3107,9.7347 L105.9847,9.7347 L105.9847,9.7347 Z M105.1217,20.4227 C105.7437,20.4227 106.3307,20.2507 106.6747,19.9917 C107.1587,19.6297 107.2807,19.1107 107.2807,18.4897 L107.2807,14.8457 C107.2807,14.2587 107.1417,13.8107 106.6927,13.4297 C106.2607,13.0507 105.7257,13.0327 105.0867,13.0327 L97.6617,13.0327 L97.6457,20.4227 L105.1217,20.4227 Z" id="Fill-10" fill="#FFFFFF"></path>
        <path d="M124.288,20.7347 C124.805,20.7347 125.238,20.6997 125.652,20.4227 C125.962,20.1997 126.014,19.9737 126.014,19.6637 L126.014,19.3347 C126.014,19.0247 125.774,18.6107 125.479,18.4547 C125.185,18.2817 124.581,18.2817 124.012,18.2657 L117.934,18.1267 C116.586,18.1267 115.256,17.9547 114.549,17.3317 C113.479,16.4177 113.427,15.0537 113.427,14.6217 L113.427,13.9307 C113.444,12.6187 113.668,11.2197 114.929,10.4777 C116.069,9.8217 117.278,9.7347 119.66,9.7347 L124.012,9.7347 C125.565,9.7347 128.172,10.0287 128.898,11.3067 C129.312,12.0147 129.433,12.5497 129.433,13.3777 L129.433,14.1897 L125.513,14.1897 L125.513,13.6547 C125.513,13.3607 125.393,13.1887 125.168,13.0157 C124.944,12.8427 124.684,12.8087 124.374,12.8087 L118.97,12.8087 C118.572,12.8087 118.279,12.7747 117.969,13.0157 C117.674,13.2227 117.485,13.5337 117.485,13.8617 L117.485,14.1207 C117.485,14.4317 117.571,14.7247 117.813,14.9317 C118.071,15.1387 118.348,15.1217 118.676,15.1217 L125.513,15.1907 C126.688,15.2087 127.878,15.3807 128.483,15.7607 C129.571,16.4347 129.847022,17.7807 129.847022,19.0767 L129.847022,19.7147 C129.847022,20.5947 129.864,21.5107 128.949,22.5127 C127.792,23.8257 124.961,23.7037 124.306,23.7037 L118.141,23.7037 C116.777,23.7037 115.395,23.5317 114.688,23.0477 C113.911,22.5297 113.548,21.5967 113.548,20.9417 L113.548,19.1447 L117.519,19.1447 L117.519,19.5427 C117.519,19.8707 117.554,20.1127 117.744,20.3547 C118.002,20.7347 118.434,20.7347 118.9,20.7347 L124.288,20.7347" id="Fill-12" fill="#FFFFFF"></path>
        <polygon id="Fill-14" fill="#FFFFFF" points="143.1599 18.8519 148.0459 9.7349 154.8499 9.7349 154.8499 23.7039 150.5839 23.7039 150.5839 13.3439 144.8519 23.7039 141.7949 23.7039 135.8209 13.6549 135.8209 23.7039 131.5569 23.7039 131.5569 9.7349 138.2209 9.7349"></polygon>
        <polygon id="Fill-16" fill="#FFFFFF" points="157.007 23.7035 161.445 23.7035 161.445 9.7345 157.007 9.7345"></polygon>
        <polygon id="Fill-18" fill="#FFFFFF" points="179.7643 9.7347 179.7643 13.0327 173.6353 13.0327 173.6353 23.7037 169.3173 23.7037 169.3173 13.0327 163.2753 13.0327 163.2753 9.7347"></polygon>
        <polygon id="Fill-19" fill="#FFFFFF" points="185.3764 9.7347 185.3764 14.8627 194.6664 14.8627 194.6664 9.7347 199.0004 9.7347 199.0004 23.7037 194.6664 23.7037 194.6664 18.5067 185.3764 18.5067 185.3764 23.7037 181.1114 23.7037 181.1114 9.7347"></polygon>
    </g>
</svg>