<svg width="89" height="81" viewBox="0 0 89 81" fill="none" xmlns="http://www.w3.org/2000/svg">
<path d="M81.9383 1C82.2872 1.08722 82.2872 1.08722 82.6432 1.17621C82.7323 1.62758 82.8202 2.07912 82.9075 2.53084C82.9327 2.65793 82.9579 2.78502 82.9839 2.91596C83.1111 3.57946 83.204 4.19731 83.1718 4.87665C83.4304 4.84156 83.4304 4.84156 83.6942 4.80575C84.9284 4.63918 86.1622 4.4784 87.4009 4.34802C87.3239 5.12884 86.7865 5.57632 86.2665 6.11013C85.7308 6.66434 85.2597 7.16587 84.9339 7.87225C85.0193 7.94955 85.1047 8.02685 85.1927 8.10649C85.5777 8.45646 85.9607 8.80858 86.3436 9.16079C86.4781 9.28243 86.6125 9.40407 86.7511 9.52939C86.8783 9.64694 87.0055 9.76449 87.1366 9.8856C87.2547 9.99357 87.3728 10.1015 87.4945 10.2128C87.7533 10.5154 87.7533 10.5154 87.7533 11.0441C85.6599 10.9568 85.6599 10.9568 83.5242 10.8678C83.4079 12.2053 83.2916 13.5427 83.1718 14.9207C82.9974 14.9207 82.8229 14.9207 82.6432 14.9207C82.3603 14.5738 82.3603 14.5738 82.0815 14.1278C81.9881 13.9806 81.8948 13.8334 81.7986 13.6817C81.7284 13.5672 81.6582 13.4528 81.5859 13.3348C81.5125 13.4561 81.4391 13.5773 81.3634 13.7022C79.345 17.0286 77.2757 20.2994 74.8899 23.3789C74.8169 23.4738 74.7439 23.5688 74.6687 23.6667C73.5126 25.1694 72.3078 26.6228 71.0624 28.0522C70.8738 28.2702 70.6884 28.4911 70.5039 28.7127C68.3039 31.3345 65.425 33.4718 62.3789 35.0088C62.198 35.1019 62.0172 35.1951 61.8309 35.291C59.4927 36.3119 56.5038 36.3333 54.1117 35.4824C53.3814 35.1854 52.6805 34.8457 51.9824 34.4802C51.8412 34.4075 51.7 34.3349 51.5545 34.2601C49.4152 33.1405 47.5141 31.7638 45.6388 30.2511C45.4595 30.1094 45.2803 29.9676 45.0957 29.8216C43.1951 28.299 41.4642 26.6188 39.7515 24.8911C39.6691 24.808 39.5866 24.7249 39.5017 24.6392C38.725 23.856 37.949 23.0721 37.1752 22.286C36.7478 21.8519 36.319 21.4191 35.8894 20.9871C35.652 20.7476 35.416 20.5067 35.1801 20.2657C33.7726 18.8524 32.2753 17.5994 30.3965 16.8811C30.2672 16.8304 30.138 16.7797 30.0048 16.7275C26.5149 15.4006 22.7242 15.7743 19.3344 17.25C17.2184 18.2289 15.4542 19.7024 13.7445 21.2643C13.6214 21.3768 13.4983 21.4892 13.3714 21.605C10.1174 24.7316 7.7579 28.8655 5.81498 32.8943C5.14529 32.7925 4.81676 32.5035 4.32819 32.0463C4.17487 31.9043 4.02154 31.7623 3.86357 31.6161C3.78103 31.5386 3.69849 31.4611 3.61345 31.3812C3.23008 31.0215 2.84408 30.6646 2.45797 30.3078C2.2634 30.1278 2.06919 29.9474 1.87539 29.7666C1.26688 29.2013 0.642226 28.6634 0 28.1366C0.102651 27.2127 0.548595 26.4648 0.980176 25.6586C1.05966 25.5092 1.13915 25.3599 1.22105 25.206C1.86327 24.0153 2.55616 22.8913 3.34802 21.793C3.47272 21.618 3.59743 21.4431 3.72591 21.2629C4.5242 20.1697 5.37284 19.163 6.29749 18.1758C6.56266 17.8859 6.81791 17.5866 7.06222 17.2789C9.73692 13.9627 14.4561 11.3846 18.6784 10.8678C24.073 10.4276 28.4998 12.3743 32.5991 15.8018C33.5113 16.5924 34.3828 17.4217 35.2423 18.2687C35.3852 18.4068 35.528 18.5449 35.6752 18.6872C36.3359 19.334 36.9461 20.0112 37.5482 20.7123C37.9391 21.1479 38.3501 21.5578 38.7665 21.9692C39.2758 22.4723 39.7682 22.9762 40.2313 23.522C41.6956 25.2241 43.3256 26.7748 45.1101 28.1366C45.2526 28.2467 45.395 28.3569 45.5417 28.4704C48.1137 30.3715 50.5687 30.8879 53.6915 30.5285C58.8733 29.5475 63.1634 25.9698 66.3787 21.9437C66.6453 21.6129 66.9173 21.2864 67.1951 20.9649C69.0889 18.7712 70.643 16.3258 72.1613 13.8634C72.6418 13.0857 73.1371 12.3178 73.6344 11.5507C73.7141 11.4275 73.7939 11.3044 73.876 11.1775C74.3265 10.4835 74.7819 9.79313 75.2423 9.10573C74.7282 8.76298 74.4272 8.67352 73.8326 8.57709C73.8326 8.40264 73.8326 8.22819 73.8326 8.04846C76.2349 6.93219 76.2349 6.93218 77.3568 6.46256C77.067 5.30776 76.727 4.20945 76.2589 3.11385C76.1233 2.76211 76.1233 2.76211 76.1233 2.40969C76.6655 2.52687 77.1298 2.71036 77.6294 2.95003C77.7782 3.02101 77.927 3.09199 78.0803 3.16513C78.234 3.23929 78.3878 3.31346 78.5462 3.38987C78.7028 3.46471 78.8593 3.53956 79.0205 3.61667C79.406 3.80114 79.7912 3.9862 80.1762 4.17181C80.2409 3.99088 80.2409 3.99088 80.307 3.80631C80.5687 3.19748 80.9029 2.6491 81.2555 2.09031C81.3212 1.98503 81.3868 1.87974 81.4544 1.77127C81.6151 1.51379 81.7766 1.25684 81.9383 1Z" fill="white"/>
<path d="M78.8773 47.5907C81.5443 49.3878 82.9135 51.9925 83.5242 55.0969C83.5823 55.1551 83.6405 55.2132 83.7004 55.2731C83.7226 55.8013 83.7336 56.3252 83.7362 56.8535C83.7372 57.0138 83.7382 57.1741 83.7392 57.3392C83.7409 57.6799 83.742 58.0206 83.7427 58.3613C83.7444 58.8784 83.7499 59.3954 83.7554 59.9125C83.7566 60.2438 83.7575 60.5751 83.7582 60.9064C83.7604 61.0595 83.7625 61.2127 83.7648 61.3705C83.761 62.4244 83.5568 63.2818 83.1717 64.2599C83.0723 64.5318 83.0723 64.5318 82.9707 64.8092C81.793 67.737 80.1015 69.7067 77.2184 71.0152C74.2924 72.2358 71.1674 72.0452 68.1938 71.1322C68.0775 71.074 67.9612 71.0159 67.8413 70.956C67.8413 74.2705 67.8413 77.585 67.8413 81C65.9224 81 64.0035 81 62.0264 81C62.0264 69.6608 62.0264 58.3216 62.0264 46.6388C63.9453 46.6388 65.8643 46.6388 67.8413 46.6388C67.9286 47.2494 67.9286 47.2494 68.0176 47.8723C68.1448 47.766 68.272 47.6596 68.403 47.5501C71.2436 45.3566 75.8648 45.9296 78.8773 47.5907ZM67.8413 52.8062C67.6892 53.4111 67.6892 53.4111 67.7213 54.087C67.7212 54.2126 67.721 54.3382 67.7209 54.4676C67.7216 54.8806 67.7298 55.2932 67.7381 55.7061C67.7401 55.9932 67.7416 56.2804 67.7426 56.5675C67.7467 57.3217 67.757 58.0756 67.7687 58.8297C67.7796 59.5998 67.7844 60.3699 67.7897 61.1401C67.801 62.65 67.8191 64.1598 67.8413 65.6696C68.0943 65.8133 68.3477 65.9564 68.6013 66.0991C68.7423 66.1789 68.8834 66.2586 69.0287 66.3407C70.3349 67.0288 72.3246 66.9064 73.7334 66.5286C75.1775 66.002 76.2253 65.2647 76.9487 63.8865C77.6697 62.3081 77.7936 60.6868 77.7753 58.9736C77.7773 58.7823 77.7794 58.5911 77.7815 58.394C77.7747 56.4999 77.494 54.3582 76.2245 52.8626C75.1209 51.8039 73.5722 51.3315 72.0704 51.2203C71.9478 51.2091 71.8251 51.198 71.6987 51.1865C70.2348 51.1083 68.8137 51.6777 67.8413 52.8062Z" fill="white"/>
<path d="M28.1928 46.8149C28.3323 46.866 28.4717 46.9171 28.6154 46.9698C31.3635 48.0906 33.2906 50.1526 34.5364 52.8061C35.0491 54.3251 35.0935 55.8022 35.0871 57.3876C35.0877 57.5543 35.0884 57.7211 35.0891 57.8928C35.0855 60.539 35.0855 60.539 34.7126 60.9118C34.2031 60.9286 33.6978 60.934 33.1883 60.9318C32.9485 60.9319 32.9485 60.9319 32.7038 60.9319C32.1728 60.9318 31.6417 60.9304 31.1106 60.929C30.7434 60.9287 30.3763 60.9285 30.0091 60.9283C29.0407 60.9276 28.0722 60.9259 27.1038 60.9239C26.1164 60.9221 25.129 60.9213 24.1416 60.9204C22.2027 60.9185 20.2638 60.9155 18.325 60.9118C18.4306 61.334 18.538 61.7555 18.6464 62.177C18.6759 62.2955 18.7053 62.414 18.7357 62.5361C19.0995 63.9376 19.7488 65.056 20.9819 65.8471C23.2486 67.0173 25.6239 66.8964 28.0166 66.1982C28.7095 65.8987 29.3556 65.5808 29.8757 65.0253C30.1311 64.7885 30.1311 64.7885 30.6597 64.7885C30.9947 65.4765 31.3234 66.1674 31.6509 66.859C31.7463 67.0548 31.8417 67.2506 31.94 67.4523C32.0729 67.7351 32.0729 67.7351 32.2085 68.0236C32.2915 68.1971 32.3746 68.3706 32.4602 68.5493C32.5981 69.0176 32.5981 69.0176 32.4674 69.4149C31.3448 70.9716 28.7761 71.4115 27.0144 71.7048C23.8097 72.0996 20.0105 72.0728 17.2677 70.1409C14.4597 67.8718 12.9941 65.1819 12.51 61.6167C12.4601 60.8963 12.451 60.18 12.4549 59.4581C12.4559 59.2649 12.4569 59.0718 12.4579 58.8728C12.5095 55.4155 13.4865 52.1758 15.9681 49.6673C16.1663 49.4801 16.3646 49.2928 16.5628 49.1057C16.6973 48.9567 16.8318 48.8076 16.9703 48.6541C19.8402 46.0512 24.6136 45.4912 28.1928 46.8149ZM19.9109 52.9823C19.2172 54.1107 18.8667 55.0048 18.6774 56.3303C22.2245 56.3303 25.7716 56.3303 29.4263 56.3303C29.2378 54.6344 28.96 53.4816 27.7192 52.2885C25.4899 50.525 21.7481 50.7283 19.9109 52.9823Z" fill="white"/>
<path d="M46.7507 46.2313C46.9603 46.2322 47.1699 46.233 47.3859 46.2339C50.1548 46.2709 52.5493 46.7554 54.6189 48.7155C57.6645 52.03 57.1509 57.4047 57.1725 61.573C57.0016 65.9492 57.0016 65.9492 58.8542 69.7225C58.8068 70.4088 58.4534 70.8401 57.9731 71.3084C56.9215 71.8492 55.791 71.984 54.6251 71.837C53.4168 71.3895 52.8345 70.6092 52.1581 69.5463C52.0423 69.6454 52.0423 69.6454 51.9241 69.7466C49.8006 71.4601 47.2636 72.0324 44.5811 71.837C42.1945 71.5046 40.2842 70.7765 38.7661 68.8414C37.3644 66.4996 37.2657 63.9466 37.8788 61.3401C38.5078 59.256 39.8311 57.7286 41.6536 56.5734C43.7026 55.4922 45.8375 55.1053 48.1163 54.9648C48.2642 54.9547 48.4121 54.9447 48.5645 54.9343C49.5819 54.8837 50.4718 55.0027 51.4533 55.2732C51.3782 54.9643 51.3006 54.656 51.222 54.348C51.1791 54.1763 51.1362 54.0046 51.0919 53.8277C50.9246 53.3347 50.7153 53.0342 50.396 52.63C50.396 52.5137 50.396 52.3974 50.396 52.2776C50.1043 52.1552 49.8099 52.0395 49.515 51.9251C49.4159 51.8786 49.3169 51.832 49.2149 51.784C47.0457 50.883 44.1092 51.2469 41.9964 52.1192C41.5855 52.2776 41.5855 52.2776 41.0568 52.2776C40.8742 51.6175 40.6953 50.9565 40.5172 50.2952C40.4653 50.1078 40.4134 49.9204 40.3599 49.7273C40.2875 49.4564 40.2875 49.4564 40.2136 49.1801C40.1684 49.014 40.1232 48.8479 40.0766 48.6768C39.9974 48.2119 39.9937 47.9528 40.1758 47.5198C40.6259 47.2707 40.6259 47.2707 41.211 47.0573C41.3995 46.986 41.5881 46.9146 41.7823 46.8412C43.416 46.3215 45.0461 46.223 46.7507 46.2313ZM44.1405 61.3414C43.3418 62.3929 43.188 63.4964 43.3476 64.7886C43.5917 65.5987 43.9179 66.0867 44.57 66.6278C45.84 67.2757 47.3031 67.2345 48.667 66.8811C49.6715 66.5389 50.4311 66.0663 50.9549 65.1208C51.4531 63.9478 51.5413 62.9479 51.4973 61.6828C51.4942 61.5059 51.491 61.3289 51.4877 61.1466C51.4795 60.7158 51.468 60.2853 51.4533 59.8547C51.2343 59.7974 51.0154 59.7402 50.7898 59.6812C50.6666 59.649 50.5434 59.6168 50.4165 59.5836C48.3144 59.1248 45.6116 59.7353 44.1405 61.3414Z" fill="white"/>
<path d="M31.8137 15.1562C33.0177 16.1295 34.1404 17.1828 35.2423 18.2688C35.3893 18.411 35.5362 18.5532 35.6876 18.6997C36.0153 19.0207 36.334 19.3481 36.652 19.6785C36.7442 19.7635 36.8364 19.8484 36.9314 19.936C37.4932 20.4978 37.5849 20.9188 37.5881 21.6829C37.5741 21.9549 37.5572 22.2267 37.533 22.4979C36.7867 21.8803 36.0858 21.2388 35.4128 20.5421C32.7303 17.7689 29.7371 16.0457 25.8213 15.9289C20.9431 15.8594 17.2292 18.081 13.7445 21.2644C13.5598 21.4331 13.5598 21.4331 13.3714 21.6052C10.1174 24.7317 7.7579 28.8656 5.81498 32.8944C5.14529 32.7926 4.81676 32.5036 4.32819 32.0464C4.17487 31.9044 4.02154 31.7624 3.86357 31.6162C3.78103 31.5387 3.69849 31.4612 3.61345 31.3814C3.23008 31.0216 2.84408 30.6647 2.45797 30.3079C2.2634 30.1279 2.06919 29.9476 1.87539 29.7668C1.26688 29.2014 0.642226 28.6635 0 28.1367C0.102651 27.2128 0.548595 26.4649 0.980176 25.6587C1.09941 25.4347 1.09941 25.4347 1.22105 25.2061C1.86327 24.0154 2.55616 22.8914 3.34802 21.7931C3.47272 21.6182 3.59743 21.4433 3.72591 21.2631C4.5242 20.1698 5.37284 19.1631 6.29749 18.1759C6.56266 17.886 6.81791 17.5867 7.06222 17.279C13.4579 9.34944 24.2144 9.21937 31.8137 15.1562Z" fill="white"/>
<path d="M7.57789 36.2423C7.57847 36.3876 7.57905 36.533 7.57965 36.6827C7.59399 40.2244 7.61022 43.7661 7.62855 47.3078C7.63737 49.0205 7.64555 50.7333 7.65222 52.4461C7.65804 53.9395 7.66507 55.4329 7.67353 56.9263C7.67797 57.7165 7.68181 58.5067 7.6842 59.297C7.68648 60.042 7.69038 60.787 7.69549 61.532C7.69707 61.8042 7.69808 62.0765 7.69845 62.3487C7.67307 65.3835 7.67307 65.3835 8.81137 68.1366C9.2442 68.5447 9.2442 68.5447 9.69242 68.8414C9.87115 69.0151 10.0479 69.1909 10.2211 69.3701C9.45079 70.5874 8.5701 71.4151 7.14149 71.7689C5.89791 71.9595 4.628 71.982 3.52502 71.3084C2.65562 70.5277 1.9973 69.5746 1.87407 68.3949C1.87456 68.1633 1.87505 67.9317 1.87555 67.693C1.8751 67.5633 1.87464 67.4336 1.87418 67.3C1.87331 66.8673 1.87621 66.4348 1.87911 66.0022C1.87925 65.6913 1.87917 65.3804 1.87887 65.0694C1.87872 64.2267 1.88183 63.384 1.88552 62.5412C1.88883 61.66 1.88913 60.7788 1.88976 59.8976C1.8914 58.2295 1.89574 56.5614 1.90105 54.8933C1.90696 52.994 1.90986 51.0947 1.91252 49.1953C1.91804 45.2888 1.92734 41.3823 1.93912 37.4758C2.62861 37.2991 3.31837 37.1234 4.0084 36.9488C4.24296 36.8893 4.47746 36.8294 4.71187 36.7693C5.04935 36.6828 5.38713 36.5975 5.72491 36.5121C6.02943 36.4346 6.02943 36.4346 6.3401 36.3555C6.87304 36.2423 6.87304 36.2423 7.57789 36.2423Z" fill="white"/>
<path d="M37.5331 20.912C40.2648 23.1206 40.2648 23.1206 40.4138 24.1581C40.3635 24.5463 40.3635 24.5463 40.1763 25.1411C39.8856 24.8988 39.5959 24.6552 39.3111 24.4059C39.0603 24.1866 38.8054 23.972 38.547 23.7617C37.5767 22.9107 37.5767 22.9107 37.4443 22.1923C37.445 21.7563 37.4695 21.3429 37.5331 20.912Z" fill="white"/>
<path d="M37.5325 20.912C37.9902 21.1944 38.2698 21.3723 38.5898 21.793C38.7341 22.4394 38.7637 23.0704 38.766 23.7314C38.284 23.4289 37.8837 23.1247 37.5325 22.6741C37.426 22.0726 37.4573 21.5162 37.5325 20.912Z" fill="white"/>
<path d="M80.3742 11.6015C80.9349 11.851 81.1312 12.2792 81.4102 12.8061C81.3661 13.2246 81.3661 13.2246 81.234 13.5109C80.8851 12.9004 80.8851 12.9004 80.5291 12.2775C79.6686 12.2775 79.2472 12.6107 78.5688 13.0814C78.1701 13.3571 77.7736 13.6135 77.3573 13.8634C77.241 13.8052 77.1247 13.7471 77.0049 13.6872C77.4708 13.3292 77.9413 12.978 78.4146 12.6299C78.5538 12.527 78.6931 12.4241 78.8365 12.3181C78.9735 12.2211 79.1105 12.1241 79.2516 12.0242C79.3779 11.9335 79.5042 11.8429 79.6343 11.7495C80.0005 11.5726 80.0005 11.5726 80.3742 11.6015Z" fill="white"/>
<path d="M75.9463 9.10559C76.2071 9.15986 76.4677 9.21511 76.7282 9.27079C76.8734 9.30145 77.0185 9.33212 77.1681 9.36371C77.5322 9.45801 77.5322 9.45801 77.7084 9.63423C77.625 11.0243 77.201 12.3524 76.8273 13.6871C76.711 13.6871 76.5947 13.6871 76.4749 13.6871C76.5258 13.4663 76.5767 13.2455 76.6291 13.018C76.6952 12.7271 76.7613 12.4362 76.8273 12.1452C76.861 11.9999 76.8946 11.8545 76.9292 11.7047C76.961 11.5639 76.9928 11.423 77.0256 11.2779C77.0551 11.1488 77.0846 11.0196 77.1151 10.8865C77.1999 10.4623 77.1999 10.4623 77.1798 9.81044C76.7727 9.63599 76.3657 9.46154 75.9463 9.2818C75.9463 9.22365 75.9463 9.1655 75.9463 9.10559Z" fill="white"/>
<path d="M38.5908 21.9691C39.0424 22.3326 39.0424 22.3326 39.4719 22.8502C39.4388 23.522 39.4388 23.522 39.2957 24.0837C39.1212 24.0255 38.9468 23.9674 38.767 23.9074C38.7089 23.2678 38.6507 22.6281 38.5908 21.9691Z" fill="white"/>
<path d="M37.5322 20.912C37.7939 21.0864 37.7939 21.0864 38.0609 21.2644C38.1328 21.7423 38.0844 22.1884 38.0609 22.6741C37.8864 22.6741 37.712 22.6741 37.5322 22.6741C37.5322 22.0926 37.5322 21.5111 37.5322 20.912Z" fill="white"/>
<path d="M39.8241 23.3789C40.0994 23.5661 40.0994 23.5661 40.3527 23.9075C40.2977 24.5573 40.2977 24.5573 40.1765 25.141C39.9439 24.9084 39.7113 24.6758 39.4717 24.4362C39.588 24.0873 39.7043 23.7384 39.8241 23.3789Z" fill="white"/>
<path d="M80 11.3965C79.7635 12.1058 79.3968 12.2569 78.7665 12.63C78.6502 12.63 78.5339 12.63 78.4141 12.63C78.6457 11.935 79.2272 11.3965 80 11.3965Z" fill="white"/>
<path d="M81.9387 1C82.1713 1.05815 82.4039 1.1163 82.6436 1.17621C82.7327 1.62758 82.8206 2.07912 82.9079 2.53084C82.9331 2.65793 82.9583 2.78502 82.9843 2.91596C83.1115 3.57946 83.2044 4.19731 83.1722 4.87665C83.4308 4.84156 83.4308 4.84156 83.6947 4.80575C84.9288 4.63918 86.1627 4.4784 87.4013 4.34802C87.3243 5.12884 86.7869 5.57632 86.2669 6.11013C85.7312 6.66434 85.2601 7.16587 84.9343 7.87225C85.0624 7.9882 85.0624 7.9882 85.1931 8.10649C85.5781 8.45646 85.9611 8.80858 86.344 9.16079C86.4785 9.28243 86.613 9.40407 86.7515 9.52939C86.9423 9.70571 86.9423 9.70571 87.137 9.8856C87.2551 9.99357 87.3732 10.1015 87.4949 10.2128C87.7537 10.5154 87.7537 10.5154 87.7537 11.0441C86.3581 10.9859 84.9625 10.9278 83.5246 10.8678C83.4083 12.2053 83.292 13.5427 83.1722 14.9207C82.9978 14.9207 82.8233 14.9207 82.6436 14.9207C82.3219 14.4968 82.0345 14.0807 81.7515 13.6322C81.6728 13.5105 81.5941 13.3889 81.513 13.2636C81.3661 13.0363 81.22 12.8086 81.0748 12.5802C80.8964 12.3008 80.7129 12.0247 80.529 11.7489C79.7683 11.9066 79.2046 12.301 78.5687 12.7291C77.4035 13.511 77.4035 13.511 77.0048 13.511C76.9431 12.5643 77.1087 11.8395 77.4178 10.9436C77.5405 10.4892 77.5535 10.1027 77.5334 9.63436C76.309 9.20756 75.1051 8.83152 73.833 8.57709C73.833 8.40264 73.833 8.22819 73.833 8.04846C76.2353 6.93218 76.2353 6.93218 77.3572 6.46255C77.0674 5.30776 76.7274 4.20945 76.2594 3.11385C76.1238 2.76211 76.1238 2.76211 76.1238 2.40969C76.6659 2.52687 77.1302 2.71036 77.6298 2.95003C77.7786 3.02101 77.9274 3.09199 78.0807 3.16513C78.3113 3.27637 78.3113 3.27637 78.5467 3.38987C78.7032 3.46471 78.8597 3.53956 79.0209 3.61667C79.4064 3.80114 79.7917 3.9862 80.1766 4.17181C80.2198 4.05119 80.2629 3.93058 80.3074 3.8063C80.5691 3.19748 80.9033 2.64909 81.2559 2.09031C81.3216 1.98503 81.3872 1.87974 81.4548 1.77127C81.6155 1.51379 81.777 1.25684 81.9387 1Z" fill="white" stroke="#111111" stroke-width="1.25"/>
</svg>
